<svg width="20" height="20" viewBox="0 0 20 20" fill="none" xmlns="http://www.w3.org/2000/svg">
<mask id="mask0" mask-type="alpha" maskUnits="userSpaceOnUse" x="2" y="3" width="17" height="14">
<path fill-rule="evenodd" clip-rule="evenodd" d="M2.7998 10.8002L15.2686 10.8002L11.0342 15.0346C10.7222 15.3466 10.7222 15.853 11.0342 16.1658C11.347 16.4786 11.8534 16.4786 12.1654 16.1658L17.7654 10.5658C18.0782 10.2538 18.0782 9.74659 17.7654 9.43459L12.1654 3.83459C12.0094 3.67859 11.8046 3.60019 11.5998 3.60019C11.395 3.60019 11.1902 3.67859 11.0342 3.83459C10.7222 4.14659 10.7222 4.65299 11.0342 4.96579L15.2686 9.20019L2.7998 9.20019C2.3582 9.20019 1.9998 9.55859 1.9998 10.0002C1.9998 10.4418 2.3582 10.8002 2.7998 10.8002Z" fill="black"/>
</mask>
<g mask="url(#mask0)">
<rect x="20" y="20" width="20" height="20" transform="rotate(-180 20 20)" fill="black"/>
</g>
</svg>
