<svg width="50" height="50" viewBox="0 0 50 50" fill="none" xmlns="http://www.w3.org/2000/svg">
<g clip-path="url(#clip0)">
<path d="M25.379 0L12.0996 7.65854L16.9818 10.4878L25.379 5.65854L33.7764 10.4878L38.6585 7.65854L25.379 0Z" fill="#F0B90B"/>
<path d="M33.7764 14.4878L38.6585 17.3172V22.9757L30.2613 27.8049V37.4634L25.379 40.2927L20.4969 37.4634V27.8049L12.0996 22.9757V17.3172L16.9818 14.4878L25.379 19.3172L33.7764 14.4878Z" fill="#F0B90B"/>
<path d="M38.6565 26.9756V32.6341L33.7744 35.4633V29.8048L38.6565 26.9756Z" fill="#F0B90B"/>
<path d="M33.7256 39.4635L42.1228 34.6342V24.9757L47.0051 22.1465V37.4635L33.7256 45.1221V39.4635Z" fill="#F0B90B"/>
<path d="M42.1233 15.3168L37.2412 12.4875L42.1233 9.6582L47.0056 12.4875V18.146L42.1233 20.9753V15.3168Z" fill="#F0B90B"/>
<path d="M20.4961 47.1705V41.512L25.3782 44.3412L30.2605 41.512V47.1705L25.3782 49.9997L20.4961 47.1705Z" fill="#F0B90B"/>
<path d="M16.9818 35.4633L12.0996 32.6341V26.9756L16.9818 29.8048V35.4633Z" fill="#F0B90B"/>
<path d="M25.3782 15.3168L20.4961 12.4875L25.3782 9.6582L30.2605 12.4875L25.3782 15.3168Z" fill="#F0B90B"/>
<path d="M13.5144 12.4875L8.63218 15.3168V20.9753L3.75 18.146V12.4875L8.63218 9.6582L13.5144 12.4875Z" fill="#F0B90B"/>
<path d="M3.75 22.1465L8.63217 24.9757V34.6342L17.0295 39.4635V45.1221L3.75 37.4635V22.1465Z" fill="#F0B90B"/>
</g>
<defs>
<clipPath id="clip0">
<rect width="50" height="50" fill="white"/>
</clipPath>
</defs>
</svg>
