<svg width="26" height="27" viewBox="0 0 26 27" fill="none" xmlns="http://www.w3.org/2000/svg">
<circle cx="13" cy="13.5247" r="12.675" fill="rgba(0,0,0,0)" stroke="#7176AA" stroke-width="0.65"/>
<mask id="mask0" mask-type="alpha" maskUnits="userSpaceOnUse" x="5" y="7" width="16" height="13">
<path fill-rule="evenodd" clip-rule="evenodd" d="M5.98059 14.3045L18.1377 14.3045L14.0091 18.433C13.7049 18.7372 13.7049 19.2309 14.0091 19.5359C14.3141 19.8409 14.8078 19.8409 15.112 19.5359L20.572 14.0759C20.877 13.7717 20.877 13.2772 20.572 12.973L15.112 7.51301C14.9599 7.36091 14.7603 7.28447 14.5606 7.28447C14.3609 7.28447 14.1612 7.36091 14.0091 7.51301C13.7049 7.81721 13.7049 8.31095 14.0091 8.61593L18.1377 12.7445L5.98059 12.7445C5.55003 12.7445 5.20059 13.0939 5.20059 13.5245C5.20059 13.955 5.55003 14.3045 5.98059 14.3045Z" fill="black"/>
</mask>
<g mask="url(#mask0)">
<rect x="22.75" y="23.2747" width="19.5" height="19.5" transform="rotate(-180 22.75 23.2747)" fill="#0E0B93"/>
</g>
</svg>
