<svg xmlns="http://www.w3.org/2000/svg" viewBox="0 0 25 25" width="25" height="25">
	<defs>
		<clipPath clipPathUnits="userSpaceOnUse" id="cp1">
			<path d="M20.71 23.94L12.63 15.86L4.55 23.94C3.65 24.83 2.21 24.83 1.31 23.94C0.42 23.05 0.42 21.6 1.31 20.71L9.39 12.63L1.31 4.55C0.42 3.65 0.42 2.21 1.31 1.31C2.21 0.42 3.65 0.42 4.55 1.31L12.63 9.39L20.71 1.31C21.6 0.42 23.05 0.42 23.94 1.31C24.83 2.21 24.83 3.65 23.94 4.55L15.86 12.63L23.94 20.71C24.83 21.6 24.83 23.05 23.94 23.94C23.05 24.83 21.6 24.83 20.71 23.94Z" />
		</clipPath>
	</defs>
	<style>
		tspan { white-space:pre }
		.shp0 { fill: #e31c3d } 
	</style>
	<g id="Clip-Path" clip-path="url(#cp1)">
		<g id="Layer">
			<path id="Layer" class="shp0" d="M-12 -12L38 -12L38 38L-12 38L-12 -12Z" />
		</g>
	</g>
</svg>