<svg width="37" height="44" viewBox="0 0 37 44" fill="none" xmlns="http://www.w3.org/2000/svg">
<path d="M21.5625 24.9C21.5625 25.3111 21.4012 25.7053 21.114 25.996C20.8268 26.2867 20.4374 26.45 20.0312 26.45H7.78125C7.37514 26.45 6.98566 26.2867 6.69849 25.996C6.41133 25.7053 6.25 25.3111 6.25 24.9C6.25 24.4889 6.41133 24.0947 6.69849 23.804C6.98566 23.5133 7.37514 23.35 7.78125 23.35H20.0312C20.4374 23.35 20.8268 23.5133 21.114 23.804C21.4012 24.0947 21.5625 24.4889 21.5625 24.9ZM20.0312 29.55H7.78125C7.37514 29.55 6.98566 29.7133 6.69849 30.004C6.41133 30.2947 6.25 30.6889 6.25 31.1C6.25 31.5111 6.41133 31.9053 6.69849 32.196C6.98566 32.4867 7.37514 32.65 7.78125 32.65H20.0312C20.4374 32.65 20.8268 32.4867 21.114 32.196C21.4012 31.9053 21.5625 31.5111 21.5625 31.1C21.5625 30.6889 21.4012 30.2947 21.114 30.004C20.8268 29.7133 20.4374 29.55 20.0312 29.55ZM36.875 12.5V35.75C36.875 36.1611 36.7137 36.5553 36.4265 36.846C36.1393 37.1367 35.7499 37.3 35.3438 37.3H29.2188V41.95C29.2188 42.3611 29.0574 42.7553 28.7703 43.046C28.4831 43.3367 28.0936 43.5 27.6875 43.5H1.65625C1.25014 43.5 0.860658 43.3367 0.573493 43.046C0.286328 42.7553 0.125 42.3611 0.125 41.95V7.85001C0.125 7.43892 0.286328 7.04467 0.573493 6.75399C0.860658 6.46331 1.25014 6.30001 1.65625 6.30001H7.78125V1.65001C7.78125 1.23892 7.94258 0.844672 8.22974 0.553991C8.51691 0.263309 8.90639 0.100006 9.3125 0.100006H26.1562C26.3774 0.0999914 26.596 0.148477 26.7969 0.242127C26.9978 0.335778 27.1762 0.47237 27.32 0.642506L36.5075 11.4925C36.7447 11.7733 36.875 12.1306 36.875 12.5ZM26.1562 20.25H18.5C18.0939 20.25 17.7044 20.0867 17.4172 19.796C17.1301 19.5053 16.9688 19.1111 16.9688 18.7V9.40001H3.1875V40.4H26.1562V20.25ZM20.0312 12.0505V17.15H24.3494L20.0312 12.0505ZM33.8125 13.0735L25.4366 3.20001H10.8438V6.30001H18.5C18.7148 6.30247 18.9267 6.35066 19.122 6.44146C19.3172 6.53225 19.4913 6.66362 19.6331 6.82701L28.8206 17.677C28.8206 17.7545 28.9125 17.8475 28.9738 17.925L29.0809 18.111C29.1594 18.298 29.206 18.4972 29.2188 18.7V34.2H33.8125V13.0735Z" fill="#0A57A4"/>
</svg>
