<svg width="32" height="36" viewBox="0 0 32 36" fill="none" xmlns="http://www.w3.org/2000/svg">
<mask id="mask0" mask-type="alpha" maskUnits="userSpaceOnUse" x="0" y="17" width="32" height="19">
<path fill-rule="evenodd" clip-rule="evenodd" d="M6.57212 17.2988H3.05282C1.85867 17.2988 0.890625 18.2669 0.890625 19.461V33.5153C0.890625 34.7095 1.85867 35.6775 3.05282 35.6775H28.9992C30.1933 35.6775 31.1614 34.7095 31.1614 33.5153V23.7854H3.05282V21.6232H31.1614V19.461C31.1614 18.2669 30.1933 17.2988 28.9992 17.2988H24.4003C22.3215 19.9316 19.1012 21.6214 15.4862 21.6214C11.8713 21.6214 8.65097 19.9316 6.57212 17.2988Z" fill="black"/>
</mask>
<g mask="url(#mask0)">
<rect x="-11" width="54.0549" height="54.0549" fill="#0A57A4"/>
</g>
<path d="M15.0662 17.974H15.9952V16.4806C17.8222 16.3117 19.3395 15.1116 19.3395 12.9781V12.9603C19.3395 11.1024 18.2248 10.1601 16.2352 9.60891L15.9952 9.54668V5.46636C17.0403 5.61749 17.7835 6.35532 17.8841 7.54653V7.56431L19.2312 7.55542V7.54653C19.1692 5.59082 17.7835 4.25738 15.9952 4.0707V2.56836H15.0662V4.0707C13.2315 4.26627 11.9232 5.56415 11.9232 7.46652V7.4843C11.9232 9.22666 12.9605 10.2134 14.8882 10.7468L15.0662 10.8001V15.076C13.7192 14.9071 13.1231 14.027 12.9837 12.9247V12.9069L11.6367 12.9158V12.9247C11.6987 14.9871 13.2237 16.2761 15.0662 16.4717V17.974ZM13.2702 7.37763V7.35985C13.2702 6.50645 13.8895 5.65305 15.0662 5.46636V9.28889C13.7347 8.91552 13.2702 8.23992 13.2702 7.37763ZM16.0417 11.0668C17.5745 11.4935 17.9925 12.1158 17.9925 13.0847V13.1025C17.9925 14.1248 17.4351 14.9604 15.9952 15.0938V11.0579L16.0417 11.0668Z" fill="#0A57A4"/>
<circle cx="15.4853" cy="10.2704" r="9.72989" stroke="#0A57A4" stroke-width="1.0811"/>
</svg>
