<svg width="29" height="25" viewBox="0 0 29 25" fill="none" xmlns="http://www.w3.org/2000/svg">
<path fill-rule="evenodd" clip-rule="evenodd" d="M0.972344 0.199707C0.51947 0.199707 0.152344 0.566834 0.152344 1.01971V3.47971C0.152344 3.93258 0.51947 4.29971 0.972344 4.29971H28.0323C28.4852 4.29971 28.8523 3.93258 28.8523 3.47971V1.01971C28.8523 0.566834 28.4852 0.199707 28.0323 0.199707H0.972344ZM0.152344 11.2697C0.152344 10.8168 0.51947 10.4497 0.972344 10.4497H28.0323C28.4852 10.4497 28.8523 10.8168 28.8523 11.2697V13.7297C28.8523 14.1826 28.4852 14.5497 28.0323 14.5497H0.972344C0.51947 14.5497 0.152344 14.1826 0.152344 13.7297V11.2697ZM0.152344 21.5197C0.152344 21.0668 0.51947 20.6997 0.972344 20.6997H28.0323C28.4852 20.6997 28.8523 21.0668 28.8523 21.5197V23.9797C28.8523 24.4326 28.4852 24.7997 28.0323 24.7997H0.972344C0.51947 24.7997 0.152344 24.4326 0.152344 23.9797V21.5197Z" fill="black"/>
</svg>
