<svg width="32" height="28" viewBox="0 0 32 28" fill="none" xmlns="http://www.w3.org/2000/svg">
<path fill-rule="evenodd" clip-rule="evenodd" d="M1.47766 0.799805C0.991646 0.799805 0.597656 1.19379 0.597656 1.6798V4.3198C0.597656 4.80582 0.991646 5.1998 1.47766 5.1998H30.5177C31.0037 5.1998 31.3977 4.80581 31.3977 4.3198V1.6798C31.3977 1.19379 31.0037 0.799805 30.5177 0.799805H1.47766ZM0.597656 12.6798C0.597656 12.1938 0.991646 11.7998 1.47766 11.7998H30.5177C31.0037 11.7998 31.3977 12.1938 31.3977 12.6798V15.3198C31.3977 15.8058 31.0037 16.1998 30.5177 16.1998H1.47766C0.991646 16.1998 0.597656 15.8058 0.597656 15.3198V12.6798ZM0.597656 23.6798C0.597656 23.1938 0.991646 22.7998 1.47766 22.7998H30.5177C31.0037 22.7998 31.3977 23.1938 31.3977 23.6798V26.3198C31.3977 26.8058 31.0037 27.1998 30.5177 27.1998H1.47766C0.991646 27.1998 0.597656 26.8058 0.597656 26.3198V23.6798Z" fill="#00AEEF"/>
</svg>
