<?xml version="1.0" encoding="utf-8"?>
<!-- Generator: Adobe Illustrator 25.2.1, SVG Export Plug-In . SVG Version: 6.00 Build 0)  -->
<svg version="1.1" id="Layer_1" xmlns="http://www.w3.org/2000/svg" xmlns:xlink="http://www.w3.org/1999/xlink" x="0px" y="0px"
	 viewBox="0 0 412.5 412" style="enable-background:new 0 0 412.5 412;" xml:space="preserve">
<style type="text/css">
	.st0{fill:url(#SVGID_1_);}
	.st1{fill:#00A5A5;}
	.st2{fill:url(#SVGID_2_);}
	.st3{fill:#00B7B7;}
	.st4{fill:#606265;}
	.st5{fill:#633103;}
	.st6{fill:#F3F1F1;}
	.st7{fill:#BDBDBD;}
	.st8{fill:#CF874E;}
	.st9{fill:#7F3A01;}
	.st10{fill:#FBD98E;}
	.st11{fill:#EDB70B;}
	.st12{fill:#9D7100;}
</style>
<g>
	<g>
		
			<radialGradient id="SVGID_1_" cx="263.6866" cy="179.8733" r="204.7408" gradientTransform="matrix(-0.8727 -0.4881 -2.9286 5.2365 962.1795 -605.9597)" gradientUnits="userSpaceOnUse">
			<stop  offset="0" style="stop-color:#FFFFFF"/>
			<stop  offset="4.000000e-03" style="stop-color:#6FF2FC"/>
			<stop  offset="1.200000e-02" style="stop-color:#6EDCF6"/>
			<stop  offset="2.100000e-02" style="stop-color:#00CBF2"/>
			<stop  offset="3.300000e-02" style="stop-color:#00C0EF"/>
			<stop  offset="4.899999e-02" style="stop-color:#25C7D6"/>
			<stop  offset="9.400000e-02" style="stop-color:#25C7D6"/>
			<stop  offset="0.825" style="stop-color:#25C7D5"/>
			<stop  offset="0.946" style="stop-color:#00B7ED"/>
			<stop  offset="0.957" style="stop-color:#00BCEE"/>
			<stop  offset="0.971" style="stop-color:#00CCF2"/>
			<stop  offset="0.987" style="stop-color:#85E6F9"/>
			<stop  offset="1" style="stop-color:#FFFFFF"/>
		</radialGradient>
		<circle class="st0" cx="205.3" cy="207.2" r="204.7"/>
		<path class="st1" d="M402.2,151.6C371.7,43.5,259.3-19.4,151.3,11.1S-19.7,154,10.8,262s142.9,171,250.9,140.5
			c79-22.3,136.8-89.9,146.6-171.4C411.6,204.5,409.5,177.4,402.2,151.6z M402.4,151.5c30.6,108.8-32.8,221.8-141.5,252.4
			S39.1,371.1,8.5,262.3S41.2,40.6,150,10c79.6-22.4,164.9,5.3,216.1,70.3C382.8,101.4,395.1,125.6,402.4,151.5L402.4,151.5z"/>
		
			<linearGradient id="SVGID_2_" gradientUnits="userSpaceOnUse" x1="300.8214" y1="39.2445" x2="109.7026" y2="370.2722" gradientTransform="matrix(1 0 0 -1 1.800716e-02 411.985)">
			<stop  offset="0" style="stop-color:#FFFFFF"/>
			<stop  offset="6.000000e-02" style="stop-color:#5EC7D6"/>
			<stop  offset="0.151" style="stop-color:#54C6D5"/>
			<stop  offset="0.25" style="stop-color:#24C7D6"/>
			<stop  offset="0.359" style="stop-color:#5FC7D6"/>
			<stop  offset="0.5" style="stop-color:#24C7D5"/>
			<stop  offset="0.613" style="stop-color:#24C7D6"/>
			<stop  offset="0.734" style="stop-color:#64C8D7"/>
			<stop  offset="0.841" style="stop-color:#6DC7D6"/>
			<stop  offset="0.986" style="stop-color:#FFFBFE"/>
			<stop  offset="1" style="stop-color:#FFFFFF"/>
		</linearGradient>
		<circle class="st2" cx="205.3" cy="207.2" r="191.1"/>
		<path class="st3" d="M14.4,207.2C14.2,311.4,98.6,396,202.7,396.1s188.7-84.2,188.9-188.3S307.4,19.1,203.3,18.9
			c-76-0.1-144.6,45.4-174.1,115.4C19.5,157.4,14.5,182.2,14.4,207.2z M14,207.2C13.9,100.9,100,14.7,206.3,14.6
			c106.3-0.1,192.5,86,192.6,192.3c0.1,106.3-86,192.5-192.3,192.6c-78,0.1-148.3-47-178.1-119.1C18.9,257.2,14,232.4,14,207.2z"/>
	</g>
	<g>
		<path class="st4" d="M101.2,275.6c-1.8-2.8-3.6-5.6-5.3-8.4c-5.3-8.8-8-18.3-7.8-28.6c0.1-3.2-0.1-6.5-0.1-9.7
			c0.4-15.8,7.5-28.5,18.2-39.6c0.6-0.6,1.1-1.4,2.1-1.5c1.3,1.1,1.9,2.5,1.2,4c-2,4.2-3.2,8.6-4.5,13c-7.4,10.4-8.8,22.1-7.5,34.3
			c-1,6.8,1,13.1,3.9,19.1c6.4,13.4,17.3,22.6,30,29.7c18.3,10.4,38.2,15.5,59.1,17.1c28.2,2.2,55.6-1.1,81.5-13.2
			c14.9-6.9,27.9-16.3,36.1-31c3.8-6.7,6.1-13.9,5.2-21.7c0.3-4.5,0.6-9,0.2-13.5c-0.6-6.1-2.1-12-5.8-17.1c1.2-4.3,1.4-8.7,2-13
			c2.8,2.3,4.2,5.8,6.4,8.6c2.6,5.7,5.3,11.4,5.9,17.7c1.4,13.6,1.6,27.1-4,40.1c-13.6,25.5-36.6,38.4-63.1,45.9
			c-37.9,10.8-75.6,9.5-112.6-4.7c-15.3-5.9-28.7-14.7-39.9-26.7C101.9,276.1,101.5,275.8,101.2,275.6z"/>
		<path class="st5" d="M105,204.8c1.4-4.4,2.5-8.8,4.5-13c0.7-1.5,0.1-2.9-1.2-4c-1.3-4.9-3.2-9.7-3.5-14.9c0-3.9,0.2-7.8,0-11.7
			c-0.9-16.7,6.7-29.3,19-39.7c2.1-1.8,4.4-3.4,6.7-5.1c21.4-13.1,44.8-17.8,69.6-17c17.9,0.6,35.1,4.6,51.3,12.5
			c0.3,0.3,0.7,0.6,1,0.8c12.3,6.7,22.6,15.4,28.7,28.4c0.3,0.7,0.8,1.2,1.5,1.6c5.9,3.6,11,8.3,15.7,13.3
			c7.7,9.7,11.6,20.6,10.8,33c-0.1,2.1-0.4,4.3,0.4,6.4c-0.6,4.4-0.8,8.8-2,13c-4.2,12.8-12.9,22.1-23.9,29.4c-1,0.7-2,1.2-2.6,2.4
			c-7.2,15.2-19.8,24.7-34.7,31.3c-24.3,10.7-49.7,12.8-75.7,8.3c-17-2.9-32.8-8.8-46.3-19.7c-12.8-10.4-20.4-23.3-19.5-40.4
			C105.1,214.8,104.9,209.8,105,204.8z M148.5,145.6c-1.2,5.2,1.5,10.7,7.2,13.9c10.3,5.6,20.9,5.8,31.6,1.1
			c7.3-3.2,10.3-8.4,9.2-14.6c1.5-6.6-0.8-11.6-6.4-15.3c-9.4-6.2-25.6-6.3-35,0C149.7,134.2,146.9,138.9,148.5,145.6z M184,228.6
			c-0.5-0.4-1-0.5-1.5-0.3c-4.8-0.7-9.6-1.4-14.5-2.1c-0.7-0.1-1.9-0.9-2.2,0.3c-0.5,2.2-1,4.5-0.7,6.7c0.2,1.6,2.4,1.9,3.8,2.6
			c15.6,7.4,32.2,10.6,49.4,10.6c20.1,0.1,39.4-3.6,57-13.9c16.5-9.6,26.9-23,24.8-43.4c1.2-13.9-4.6-24.6-15.5-33.9
			c0,4.4-0.1,8.2,0,11.9c0.7,16-6.2,28.5-18.1,38.5c-17,14.3-37.2,20.2-58.8,22.5c-7.6,0.8-15.1,0.4-22.7,0.7
			C184.7,228.8,184.3,228.7,184,228.6z M231.4,255c-8.2,0.5-16.4,0.7-24.7-0.1c-15.6-1.5-30.5-5.1-44.4-12.5c-2.1-1.1-3.7-1.3-6-0.3
			c-10.3,4.3-21.1-2.9-21.3-14c-0.1-2.8,0.1-5.6,0-8.5c-0.2-3-1.3-5.8-3.8-7.6c-4.8-3.4-9.5-6.9-13.4-11.2c-1.4-1.5-2-1.1-2.5,0.7
			c-1.5,4.9-1.8,10-1.5,15.1c-1.4,14.5,3.8,26.3,14.8,35.6c5.9,5,12.5,8.9,19.6,11.9c23.2,9.7,47.2,11.2,71.7,6.6
			c14.2-2.7,27.4-7.8,39-16.7c2.3-1.8,4.7-3.6,6.9-6.9C254,251.6,242.8,253.7,231.4,255z M275.6,163.1c1.1-10.4-1.8-19.6-8.5-27.6
			c-7.7-9.1-17.5-15.1-28.5-19.3c-21.1-8.2-43-9.7-65.2-6.2c-14.9,2.4-29,7.3-41.3,16.4c-12.3,9.1-19.7,20.8-18.4,36.8
			c0,2.5-0.1,5,0,7.5c0.7,14.9,9.3,24.7,21.1,33.1c0.4-4.6-0.4-8.8,1.3-12.6c3.6-3.9,3.6-4.3,0.1-7.6c-6.1-5.6-10.4-12.2-11-20.7
			c-0.8-11.8,5.1-20.2,13.9-27.1c1.4-1.1,3-2,4-3.7c2.3-4,5.8-7.1,9.9-9.1c12.9-6.4,25.8-6.4,38.8-0.2c1.5,0.7,2.9,1.3,4.6,1.5
			c10.9,2,21.2,5.6,29.7,12.9c8.5,7.2,13.6,16.1,11.8,27.6c-1.8,11.7-9.5,19.2-19.2,24.7c-13.6,7.7-28.5,9.9-43.9,8.8
			c-5.9-0.4-5.9-0.3-8,5.5c-1.1,0.7-1.1,1.8-1.1,2.9c0,2.4,0.1,4.8,0,7.1c-0.1,2.1,0.5,3,2.7,3.4c15.7,3.2,31.4,3.6,47.1,1
			c15.6-2.5,30.2-7.5,42.9-17.2C270.9,191.5,277.5,179.2,275.6,163.1z M139.9,146c-5.7,4.4-8.1,12.8-6.4,19.6
			c1.8,7,6.7,11.5,12.1,15.5c4.2,3.1,4.4,3.1,1.3,7.6c-3.2,4.7-4.6,9.5-4.3,15.2c0.4,7.9,0.1,15.8,0.1,23.7c0,4.9,2.9,7.8,7.6,7.7
			c4.5,0,7.4-2.9,7.4-7.6c0-7.4,0-14.7,0-22.1c0-1.3-0.1-2.6,0.6-3.8c2.1-3.5,4.2-7.1,6.1-10.7c0.7-1.3,1.5-1.7,3.1-1.5
			c5.2,0.6,10.5,1.8,15.8,1.4c5.8-0.5,11.7-0.9,17.3-2.5c10.6-3.1,20.3-7.5,26.7-17.2c2.5-3.9,3.5-8.2,2.9-12.7
			c-1.7-12.5-14.7-20.8-25.2-24c-1.3-0.4-2,0-1.4,1.4c1.4,3.2,0.7,6.6,0.9,10c0.7,10.1-4.8,16.6-13,21c-8.9,4.8-18.4,5.7-28.4,3.6
			C152,168.1,140.5,161.2,139.9,146z"/>
		<path class="st6" d="M105,204.8c0,5,0.1,10-0.1,14.9c-0.9,17.1,6.7,30.1,19.5,40.4c13.5,11,29.4,16.8,46.3,19.7
			c26,4.4,51.4,2.4,75.7-8.3c14.9-6.6,27.5-16,34.7-31.3c0.6-1.2,1.6-1.7,2.6-2.4c11-7.4,19.7-16.6,23.9-29.4
			c3.8,5.1,5.2,11,5.8,17.1c0.5,4.5,0.1,9-0.2,13.5c-1.1,0.3-1,1.3-1.3,2.1c-2.6,8-6.8,14.9-12.6,20.9c-10.7,11.1-23.7,18.4-38,23.6
			c-24.9,8.9-50.5,11.3-76.8,8.2c-19.2-2.3-37.6-7.3-54.4-17.3c-14.5-8.6-26.6-19.4-31.5-36.4c-0.2-0.6-0.5-0.9-1-1.1
			C96.2,226.9,97.5,215.2,105,204.8z"/>
		<path class="st7" d="M97.4,239.1c0.6,0.2,0.9,0.6,1,1.1c4.9,16.9,17,27.8,31.5,36.4c16.8,9.9,35.2,15,54.4,17.3
			c26.2,3.1,51.9,0.7,76.8-8.2c14.3-5.1,27.4-12.4,38-23.6c5.8-6.1,10.1-13,12.6-20.9c0.3-0.8,0.2-1.8,1.3-2.1
			c0.9,7.9-1.4,15-5.2,21.7c-8.3,14.7-21.3,24.1-36.1,31c-25.9,12.1-53.2,15.5-81.5,13.2c-20.9-1.7-40.8-6.7-59.1-17.1
			c-12.7-7.2-23.5-16.3-30-29.7C98.4,252.3,96.5,246,97.4,239.1z"/>
		<path class="st8" d="M166.7,203.8c2.1-5.8,2.1-5.9,8-5.5c15.5,1.1,30.3-1.1,43.9-8.8c9.8-5.5,17.4-13,19.2-24.7
			c1.8-11.6-3.3-20.4-11.8-27.6c-8.6-7.3-18.8-10.9-29.7-12.9c-1.6-0.3-3.1-0.8-4.6-1.5c-12.9-6.2-25.9-6.2-38.8,0.2
			c-4.1,2.1-7.6,5.1-9.9,9.1c-1,1.7-2.6,2.6-4,3.7c-8.8,6.9-14.6,15.4-13.9,27.1c0.6,8.5,4.9,15.1,11,20.7c3.6,3.3,3.5,3.7-0.1,7.6
			c-0.8,0.2-1.5-0.2-2.1-0.6c-8-5.5-14.6-12.4-18.3-21.6c-0.8-1.9-0.9-4-2.1-5.7c-1.3-16,6.1-27.7,18.4-36.8
			c12.3-9.1,26.4-14,41.3-16.4c22.2-3.5,44.1-2,65.2,6.2c11,4.2,20.8,10.2,28.5,19.3c6.8,8,9.6,17.2,8.5,27.6
			c-1.1,2.8-1.7,5.8-3,8.5c-5.6,11.2-14.8,18.5-25.6,23.9c-21,10.5-43.4,13.3-66.6,10.9C175.7,206,171,205.6,166.7,203.8z"/>
		<path class="st9" d="M139.9,146c0.6,15.3,12.1,22.2,23.4,24.6c9.9,2.1,19.5,1.2,28.4-3.6c8.2-4.5,13.6-10.9,13-21
			c-0.2-3.3,0.4-6.7-0.9-10c-0.6-1.4,0-1.8,1.4-1.4c10.6,3.2,23.5,11.5,25.2,24c0.6,4.5-0.4,8.8-2.9,12.7
			c-6.3,9.7-16.1,14.1-26.7,17.2c-5.6,1.7-11.5,2.1-17.3,2.5c-5.3,0.4-10.5-0.8-15.8-1.4c-1.6-0.2-2.4,0.2-3.1,1.5
			c-2,3.6-4,7.2-6.1,10.7c-0.7,1.2-0.6,2.5-0.6,3.8c0,7.4,0,14.7,0,22.1c0,4.7-2.9,7.6-7.4,7.6c-4.7,0-7.6-2.9-7.6-7.7
			c0-7.9,0.3-15.8-0.1-23.7c-0.3-5.7,1.1-10.6,4.3-15.2c3-4.4,2.8-4.5-1.3-7.6c-5.5-4-10.3-8.5-12.1-15.5
			C131.8,158.8,134.2,150.4,139.9,146z"/>
		<path class="st8" d="M185,228.9c7.6-0.3,15.1,0.1,22.7-0.7c21.6-2.3,41.9-8.2,58.8-22.5c11.9-10,18.8-22.5,18.1-38.5
			c-0.2-3.7,0-7.5,0-11.9c10.9,9.3,16.7,20,15.5,33.9c-1.6,5.3-3.3,10.5-6.7,15c-9.8,12.9-23.4,20-38.5,24.5
			c-17.8,5.4-35.9,6.5-54.2,3.8C195.4,231.8,190,231.2,185,228.9z"/>
		<path class="st10" d="M231.4,255c11.4-1.3,22.6-3.4,34.3-7.8c-2.2,3.3-4.6,5.1-6.9,6.9c-11.5,8.9-24.8,14-39,16.7
			c-24.5,4.6-48.5,3.1-71.7-6.6c-7.1-3-13.7-6.9-19.6-11.9c-11-9.4-16.2-21.1-14.8-35.6c0.4,0.8,0.8,1.5,1.1,2.3
			c1.8,6.4,5.1,11.9,9.6,16.7c8.5,9,19,14.6,30.5,18.6c17.3,5.9,35,7.6,53.1,5.8C215.9,259.1,223.8,257.9,231.4,255z"/>
		<path class="st10" d="M185,228.9c4.9,2.4,10.4,3,15.7,3.7c18.3,2.6,36.5,1.6,54.2-3.8c15.1-4.6,28.7-11.6,38.5-24.5
			c3.4-4.5,5.1-9.7,6.7-15c2.1,20.4-8.2,33.7-24.8,43.4c-17.6,10.3-36.9,13.9-57,13.9c-17.2-0.1-33.8-3.2-49.4-10.6
			c-1.4-0.7-3.6-1-3.8-2.6c-0.3-2.2,0.2-4.5,0.7-6.7c0.3-1.2,1.5-0.4,2.2-0.3c4.8,0.6,9.6,1.4,14.5,2.1c0.4,0.4,0.9,0.6,1.5,0.3
			C184.3,228.7,184.7,228.8,185,228.9z"/>
		<path class="st10" d="M166.7,203.8c4.4,1.8,9,2.2,13.6,2.6c23.2,2.4,45.6-0.4,66.6-10.9c10.8-5.4,20.1-12.8,25.6-23.9
			c1.4-2.7,1.9-5.7,3-8.5c1.9,16.1-4.7,28.4-17.2,37.9c-12.7,9.7-27.4,14.7-42.9,17.2c-15.7,2.5-31.5,2.2-47.1-1
			c-2.2-0.5-2.8-1.3-2.7-3.4c0.2-2.4,0-4.8,0-7.1C165.6,205.6,165.6,204.5,166.7,203.8z"/>
		<path class="st8" d="M231.4,255c-7.5,2.9-15.5,4.1-23.4,4.9c-18.1,1.9-35.9,0.1-53.1-5.8c-11.5-3.9-22-9.6-30.5-18.6
			c-4.5-4.8-7.9-10.3-9.6-16.7c-0.2-0.8-0.7-1.6-1.1-2.3c-0.3-5.1,0-10.2,1.5-15.1c0.5-1.7,1.1-2.2,2.5-0.7c4,4.3,8.6,7.8,13.4,11.2
			c2.4,1.7,3.6,4.5,3.8,7.6c0.2,2.8,0,5.6,0,8.5c0.2,11.1,11,18.4,21.3,14c2.3-1,3.9-0.8,6,0.3c13.9,7.3,28.9,11,44.4,12.5
			C214.9,255.6,223.1,255.5,231.4,255z"/>
		<path class="st11" d="M148.5,145.6c-1.6-6.6,1.2-11.3,6.6-14.9c9.4-6.2,25.5-6.2,35,0c5.6,3.7,8,8.6,6.4,15.3
			c-1.8,1.4-2.7,3.5-4.5,5C181.6,159.8,156.8,160,148.5,145.6z M172.2,148.3c3.7-0.4,6-2.9,8.8-4.5c2.2-1.3,2.1-3,0-4.6
			c-2-1.5-4.2-2.7-6.3-4c-1.3-0.8-2.7-0.9-4-0.1c-2.4,1.4-4.8,2.9-7.2,4.4c-1.2,0.8-1.9,2.3-0.8,3.3
			C165.7,145.2,168.7,147.4,172.2,148.3z"/>
		<path class="st12" d="M148.5,145.6c8.3,14.4,33,14.2,43.5,5.5c1.8-1.5,2.7-3.6,4.5-5c1.1,6.2-1.9,11.4-9.2,14.6
			c-10.6,4.7-21.3,4.5-31.6-1.1C150,156.3,147.3,150.8,148.5,145.6z"/>
		<path class="st10" d="M113.7,163.2c1.2,1.7,1.3,3.8,2.1,5.7c3.7,9.2,10.2,16,18.3,21.6c0.6,0.4,1.3,0.8,2.1,0.6
			c-1.8,3.8-0.9,8-1.3,12.6c-11.9-8.4-20.5-18.2-21.1-33.1C113.6,168.2,113.7,165.7,113.7,163.2z"/>
		<path class="st8" d="M184,228.6c-0.6,0.3-1.1,0.1-1.5-0.3C183,228.2,183.5,228.3,184,228.6z"/>
		<path class="st12" d="M172.2,148.3c-3.5-0.9-6.5-3.2-9.4-5.6c-1.2-1-0.5-2.5,0.8-3.3c2.3-1.5,4.7-3,7.2-4.4c1.3-0.8,2.7-0.7,4,0.1
			c2.1,1.3,4.3,2.6,6.3,4c2.1,1.6,2.2,3.3,0,4.6C178.3,145.4,176,147.9,172.2,148.3z"/>
	</g>
</g>
</svg>
