<svg width="38" height="27" viewBox="0 0 38 27" fill="none" xmlns="http://www.w3.org/2000/svg">
<mask id="mask0" mask-type="alpha" maskUnits="userSpaceOnUse" x="0" y="0" width="25" height="23">
<path d="M0 11.7253V18.7223C0 20.7238 3.176 22.2282 7.38865 22.2282C11.6013 22.2282 14.7773 20.7145 14.7773 18.7223V17.3514C15.5073 17.4477 16.2428 17.4948 16.979 17.4924C21.199 17.4924 24.3677 15.9788 24.3677 13.9865V3.5059C24.364 1.49511 21.188 0 16.9754 0C12.7627 0 9.58672 1.5118 9.58672 3.5059V8.37706C8.85707 8.27521 8.12154 8.22254 7.38498 8.21939C3.17784 8.21939 0 9.73305 0 11.7253ZM8.96289 9.40287C9.82702 9.38708 10.6851 9.55193 11.4832 9.88709C12.2814 10.2223 13.0024 10.7205 13.6012 11.3506C13.6607 11.4651 13.6928 11.5922 13.6948 11.7216C13.6948 12.6954 11.7096 13.7621 8.86381 14.0533C8.39411 14.0997 7.90789 14.1256 7.39599 14.1256C3.77964 14.1293 1.08252 12.8605 1.08252 11.7253C1.08252 10.5901 3.77964 9.31383 7.40333 9.31383C7.92422 9.31414 8.44475 9.34139 8.96289 9.39545V9.40287ZM8.80694 17.5277C8.35558 17.5777 7.88955 17.6019 7.39783 17.6074C3.77964 17.6074 1.08252 16.3386 1.08252 15.1997V13.5933C2.97121 14.7724 5.17239 15.337 7.38865 15.2108C7.88955 15.2108 8.37576 15.1885 8.84363 15.1477C10.5711 15.0794 12.248 14.5396 13.6966 13.5858V15.1922C13.6966 16.1717 11.6784 17.2531 8.79776 17.5277H8.80694ZM23.2815 3.5059C23.2815 4.63187 20.5844 5.90067 16.9754 5.90067C13.3664 5.90067 10.6692 4.64857 10.6692 3.5059C10.6692 2.36324 13.3664 1.09443 16.9754 1.09443C20.5844 1.09443 23.2815 2.37808 23.2815 3.5059ZM14.7773 13.8455C15.5072 13.9428 16.2428 13.9899 16.979 13.9865C19.1971 14.1088 21.3988 13.5383 23.2852 12.3523V13.9921C23.2852 15.1255 20.5807 16.3906 16.979 16.3906C16.2422 16.3948 15.5062 16.3421 14.7773 16.2329V13.8455ZM14.7773 11.7327C14.7681 11.4487 14.7035 11.1693 14.5874 10.9105C14.4712 10.6517 14.3057 10.4186 14.1003 10.2246C15.0476 10.3988 16.0088 10.4845 16.9717 10.4806C19.1892 10.6019 21.3902 10.0328 23.2778 8.85008V10.4806C23.2778 11.6159 20.5734 12.8921 16.9735 12.8921C16.2366 12.8936 15.5006 12.839 14.7718 12.7288V11.7327H14.7773ZM10.6692 6.97656V5.3683C12.5571 6.55004 14.7583 7.11725 16.9754 6.99325C19.1912 7.12022 21.3923 6.55694 23.2815 5.37943V6.98583C23.2815 8.11922 20.5844 9.3973 16.9754 9.3973C13.3664 9.3973 10.6692 8.10995 10.6692 6.97656ZM1.07885 17.0788C2.96704 18.2597 5.16803 18.8269 7.38498 18.7037C9.57358 18.8182 11.746 18.2685 13.6232 17.1251L13.6911 17.1418V18.7074C13.6911 19.8445 10.994 21.1189 7.38498 21.1189C3.77597 21.1189 1.07885 19.8482 1.07885 18.7111V17.0788Z" fill="#0A57A4"/>
</mask>
<g mask="url(#mask0)">
<rect x="-8" y="-16" width="50" height="50" fill="#0A57A4"/>
</g>
<path fill-rule="evenodd" clip-rule="evenodd" d="M30 27C34.4183 27 38 23.4183 38 19C38 14.5817 34.4183 11 30 11C25.5817 11 22 14.5817 22 19C22 23.4183 25.5817 27 30 27ZM30 25.8571C33.7871 25.8571 36.8572 22.7871 36.8572 19C36.8572 15.2129 33.7871 12.1429 30 12.1429C26.2129 12.1429 23.1429 15.2129 23.1429 19C23.1429 22.7871 26.2129 25.8571 30 25.8571Z" fill="#0A57A4"/>
<path d="M29.4667 14.2V19.2667L32.9333 22.7333" stroke="#0A57A4" stroke-width="1.14286" stroke-linecap="round" stroke-linejoin="round"/>
</svg>
