<svg width="35" height="35" viewBox="0 0 35 35" fill="none" xmlns="http://www.w3.org/2000/svg">
<circle cx="17.5" cy="17.5" r="16.5" stroke="white" stroke-width="2"/>
<path fill-rule="evenodd" clip-rule="evenodd" d="M17.6817 9C16.7514 9 16 9.71563 16 10.646C16 11.6121 16.7156 12.3277 17.646 12.3277C18.5763 12.3277 19.3277 11.5763 19.3277 10.6817C19.3277 9.75141 18.6121 9 17.6817 9Z" fill="white"/>
<path fill-rule="evenodd" clip-rule="evenodd" d="M18.0396 28H17.145C16.6799 28 16.2863 27.6064 16.2863 27.1412V14.8682C16.2863 14.403 16.6799 14.0094 17.145 14.0094H18.0396C18.5047 14.0094 18.8983 14.403 18.8983 14.8682V27.177C18.8983 27.6422 18.5047 28 18.0396 28Z" fill="white"/>
</svg>
