<svg width="22" height="22" viewBox="0 0 22 22" fill="none" xmlns="http://www.w3.org/2000/svg">
<circle cx="11.0977" cy="10.7012" r="10.5" fill="#2B28B7"/>
<path fill-rule="evenodd" clip-rule="evenodd" d="M11.2083 5.60156C10.6501 5.60156 10.1992 6.03094 10.1992 6.58913C10.1992 7.16879 10.6286 7.59817 11.1868 7.59817C11.745 7.59817 12.1958 7.14733 12.1958 6.6106C12.1958 6.05241 11.7665 5.60156 11.2083 5.60156Z" fill="white"/>
<path fill-rule="evenodd" clip-rule="evenodd" d="M11.4231 17.0018H10.8863C10.6073 17.0018 10.3711 16.7656 10.3711 16.4865V9.12268C10.3711 8.84358 10.6073 8.60742 10.8863 8.60742H11.4231C11.7022 8.60742 11.9383 8.84358 11.9383 9.12268V16.508C11.9383 16.7871 11.7022 17.0018 11.4231 17.0018Z" fill="white"/>
</svg>
