<svg xmlns="http://www.w3.org/2000/svg" viewBox="0 0 35 27" width="35" height="27">
	<defs>
		<clipPath clipPathUnits="userSpaceOnUse" id="cp1">
			<path d="M2 4L28 4L28 2C28 0.9 27.1 0 26 0L2 0C0.9 0 0 0.9 0 2L0 15C0 16.1 0.9 17 2 17L19.25 17C20.14 13.55 23.27 11 27 11C27.34 11 27.67 11.02 28 11.06L28 6L2 6L2 4Z" />
		</clipPath>
	</defs>
	<style>
		tspan { white-space:pre }
		.shp0 { fill: #0a57a4 } 
		.shp1 { fill: none;stroke: #000000;stroke-linecap:round;stroke-linejoin:round } 
	</style>
	<g id="Clip-Path" clip-path="url(#cp1)">
		<g id="Layer">
			<path id="Layer" class="shp0" d="M-11 -16L39 -16L39 34L-11 34L-11 -16Z" />
		</g>
	</g>
	<path id="Layer" class="shp1" d="M17 19L27 19M27 19L23.25 15M27 19L23.25 23" />
	<path id="Layer" fill-rule="evenodd" class="shp0" d="M33.75 19C33.75 22.87 30.61 26 26.75 26C23.58 26 20.9 23.89 20.04 21L19 21C19.89 24.45 23.02 27 26.75 27C31.17 27 34.75 23.42 34.75 19C34.75 14.58 31.17 11 26.75 11C23.02 11 19.89 13.55 19 17L20.04 17C20.9 14.11 23.58 12 26.75 12C30.61 12 33.75 15.13 33.75 19Z" />
</svg>