<svg xmlns="http://www.w3.org/2000/svg" viewBox="0 0 37 29" width="37" height="29">
	<defs>
		<clipPath clipPathUnits="userSpaceOnUse" id="cp1">
			<path d="M7.38 8.22C8.12 8.22 8.86 8.28 9.59 8.38L9.59 3.51C9.59 1.51 12.76 0 16.98 0C21.19 0 24.36 1.5 24.37 3.51L24.37 13.99C24.37 15.98 21.2 17.49 16.98 17.49C16.24 17.49 15.51 17.45 14.78 17.35L14.78 18.72C14.78 20.71 11.6 22.23 7.39 22.23C3.18 22.23 0 20.72 0 18.72L0 11.73C0 9.73 3.18 8.22 7.38 8.22ZM8.96 9.4C8.44 9.34 7.92 9.31 7.4 9.31C3.78 9.31 1.08 10.59 1.08 11.73C1.08 12.86 3.78 14.13 7.4 14.13C7.91 14.13 8.39 14.1 8.86 14.05C11.71 13.76 13.69 12.7 13.69 11.72C13.69 11.59 13.66 11.47 13.6 11.35C13 10.72 12.28 10.22 11.48 9.89C10.69 9.55 9.83 9.39 8.96 9.4L8.96 9.4ZM8.8 17.53C11.68 17.25 13.7 16.17 13.7 15.19L13.7 13.59C12.25 14.54 10.57 15.08 8.84 15.15C8.38 15.19 7.89 15.21 7.39 15.21C5.17 15.34 2.97 14.77 1.08 13.59L1.08 15.2C1.08 16.34 3.78 17.61 7.4 17.61C7.89 17.6 8.36 17.58 8.81 17.53L8.8 17.53ZM16.98 1.09C13.37 1.09 10.67 2.36 10.67 3.51C10.67 4.65 13.37 5.9 16.98 5.9C20.58 5.9 23.28 4.63 23.28 3.51C23.28 2.38 20.58 1.09 16.98 1.09ZM14.78 16.23C15.51 16.34 16.24 16.39 16.98 16.39C20.58 16.39 23.29 15.13 23.29 13.99L23.29 12.35C21.4 13.54 19.2 14.11 16.98 13.99C16.24 13.99 15.51 13.94 14.78 13.85L14.78 16.23ZM14.77 11.73L14.77 12.73C15.5 12.84 16.24 12.89 16.97 12.89C20.57 12.89 23.28 11.62 23.28 10.48L23.28 8.85C21.39 10.03 19.19 10.6 16.97 10.48C16.01 10.48 15.05 10.4 14.1 10.22C14.31 10.42 14.47 10.65 14.59 10.91C14.7 11.17 14.77 11.45 14.78 11.73L14.77 11.73ZM16.98 9.4C20.58 9.4 23.28 8.12 23.28 6.99L23.28 5.38C21.39 6.56 19.19 7.12 16.98 6.99C14.76 7.12 12.56 6.55 10.67 5.37L10.67 6.98C10.67 8.11 13.37 9.4 16.98 9.4ZM1.08 18.71C1.08 19.85 3.78 21.12 7.38 21.12C10.99 21.12 13.69 19.84 13.69 18.71L13.69 17.14L13.62 17.13C11.75 18.27 9.57 18.82 7.38 18.7C5.17 18.83 2.97 18.26 1.08 17.08L1.08 18.71Z" />
		</clipPath>
	</defs>
	<style>
		tspan { white-space:pre }
		.shp0 { fill: #0a57a4 } 
		.shp1 { fill: none;stroke: #000000;stroke-linecap:round;stroke-linejoin:round } 
	</style>
	<g id="Clip-Path" clip-path="url(#cp1)">
		<g id="Layer">
			<path id="Layer" class="shp0" d="M-9 -14L41 -14L41 36L-9 36L-9 -14Z" />
		</g>
	</g>
	<path id="Layer" class="shp1" d="M19 21L29 21M29 21L25.25 17M29 21L25.25 25" />
	<path id="Layer" fill-rule="evenodd" class="shp0" d="M35.75 21C35.75 24.87 32.61 28 28.75 28C25.58 28 22.9 25.89 22.04 23L21 23C21.89 26.45 25.02 29 28.75 29C33.17 29 36.75 25.42 36.75 21C36.75 16.58 33.17 13 28.75 13C25.02 13 21.89 15.55 21 19L22.04 19C22.9 16.11 25.58 14 28.75 14C32.61 14 35.75 17.13 35.75 21Z" />
</svg>