<svg width="800" height="800" viewBox="0 0 800 800" fill="none" xmlns="http://www.w3.org/2000/svg">
<path d="M400 800C179.42 800 0 620.58 0 400C0 179.42 179.42 0 400 0C620.58 0 800 179.42 800 400C800 620.58 620.58 800 400 800Z" fill="#6A8290"/>
<path d="M400 9.9209C184.908 9.9209 9.9209 184.908 9.9209 400C9.9209 615.092 184.908 790.079 400 790.079C615.092 790.079 790.079 615.092 790.079 400C790.079 184.908 615.092 9.9209 400 9.9209Z" fill="url(#paint0_linear_5001_11662)"/>
<path d="M400 766.966C197.678 766.966 33.0342 602.322 33.0342 400C33.0342 197.678 197.678 33.0343 400 33.0343C602.322 33.0343 766.966 197.678 766.966 400C766.966 602.322 602.322 766.966 400 766.966Z" fill="#445961"/>
<path d="M763.166 400C763.166 600.528 600.527 763.166 400 763.166C199.472 763.166 36.8335 600.528 36.8335 400C36.8335 199.472 199.472 36.8337 400 36.8337C600.527 36.8337 763.166 199.472 763.166 400Z" fill="url(#paint1_linear_5001_11662)"/>
<path fill-rule="evenodd" clip-rule="evenodd" d="M400 792.929C183.325 792.929 7.07129 616.675 7.07129 400C7.07129 183.325 183.325 7.07129 400 7.07129C616.675 7.07129 792.929 183.325 792.929 400C792.929 616.675 616.675 792.929 400 792.929ZM400 12.7705C186.491 12.7705 12.7705 186.491 12.7705 400C12.7705 613.509 186.491 787.23 400 787.23C613.509 787.23 787.23 613.509 787.23 400C787.23 186.491 613.509 12.7705 400 12.7705Z" fill="#E5E8EE"/>
<path fill-rule="evenodd" clip-rule="evenodd" d="M681.055 467.23C678.417 479.683 667.335 488.971 654.565 489.604C641.794 490.132 631.029 482.322 626.702 471.557C623.324 462.797 616.253 456.148 607.599 452.454L570.449 436.623C562.638 433.245 553.879 433.562 545.963 436.834C542.269 438.311 538.259 439.05 534.037 438.839C527.916 438.522 522.322 436.306 517.784 432.823L437.467 465.013C432.295 467.124 428.285 471.135 425.963 476.095C423.958 480.844 420.475 484.96 416.359 487.916C410.554 491.926 406.755 498.364 406.755 505.435V549.657C406.755 556.412 410.343 562.638 415.937 566.543C423.113 571.609 427.757 579.947 427.757 589.34C427.757 604.644 415.409 617.098 400 617.098C384.591 617.098 372.243 604.644 372.243 589.34C372.243 579.947 376.887 571.609 384.063 566.543C389.657 562.638 393.245 556.412 393.245 549.657V505.435C393.245 498.364 389.446 491.926 383.641 487.916C379.525 484.96 376.042 480.844 374.037 476.095C371.715 471.135 367.704 467.124 362.533 465.013L282.216 432.823C277.678 436.306 272.084 438.522 265.963 438.839C261.741 439.05 257.731 438.311 254.037 436.834C246.121 433.562 237.361 433.245 229.551 436.623L192.401 452.454C183.747 456.148 176.675 462.797 173.298 471.557C168.971 482.322 158.206 490.132 145.435 489.604C132.665 488.971 121.583 479.683 118.945 467.23C116.412 455.62 121.266 444.538 129.921 438.1C137.309 432.718 142.797 425.013 144.485 415.937C151.029 381.319 164.538 348.496 184.274 319.367C190.818 309.657 192.929 297.942 191.346 286.438C190.818 282.955 190.923 279.472 191.768 275.778C194.617 263.958 204.96 254.987 217.098 254.037C220.158 253.72 223.113 253.931 225.857 254.565C235.251 256.781 245.277 255.303 253.298 249.815C284.327 228.496 319.472 214.354 356.623 208.127C364.538 206.86 371.715 202.638 376.042 195.884C381.214 188.074 389.974 182.902 400 182.902C410.026 182.902 418.786 188.074 423.958 195.884C428.285 202.638 435.462 206.86 443.377 208.127C480.528 214.354 515.673 228.496 546.702 249.815C554.723 255.303 564.749 256.781 574.142 254.565C576.887 253.931 579.842 253.72 582.902 254.037C595.04 254.987 605.383 263.958 608.232 275.778C609.076 279.472 609.182 282.955 608.654 286.438C607.071 297.942 609.182 309.657 615.726 319.367C635.462 348.496 648.971 381.319 655.514 415.937C657.203 425.013 662.691 432.718 670.079 438.1C678.733 444.538 683.588 455.62 681.055 467.23ZM306.807 388.813L367.177 362.955C369.499 361.9 371.187 359.683 371.293 357.045V356.728C371.609 353.668 369.815 350.818 366.966 349.551L256.042 302.164C249.815 299.525 242.639 300.369 237.361 304.591C235.04 306.491 232.401 308.074 229.551 309.024C227.441 309.763 225.33 310.29 223.324 310.501C211.926 311.662 201.689 317.784 195.356 327.177C176.148 355.673 163.272 387.652 157.361 421.425C156.201 427.968 158.945 434.512 164.116 438.522C164.327 438.663 164.538 438.839 164.749 439.05C169.815 443.166 176.675 444.433 182.797 441.794C190.712 438.417 201.794 433.668 211.821 429.34C224.063 424.169 233.245 413.931 237.784 401.478C237.995 400.844 238.311 400.317 238.522 399.578C242.533 389.34 252.032 382.058 263.008 381.953C269.868 381.847 275.778 383.641 280.528 386.807C288.338 391.873 298.259 392.401 306.807 388.813ZM393.245 395.04C393.245 390.712 390.607 386.913 386.807 384.908C384.169 383.536 381.847 381.741 379.842 379.736C376.675 376.57 371.821 375.726 367.704 377.52L298.47 407.177C295.514 408.443 293.404 411.187 292.876 414.354V414.67C292.243 418.997 294.67 423.219 298.681 424.802L362.744 450.449C368.232 452.665 374.354 450.871 378.153 446.332C380.369 443.694 383.113 441.478 386.069 439.789C390.396 437.361 393.245 432.929 393.245 427.968V395.04ZM393.245 265.752C393.245 253.087 388.496 240.844 379.736 231.768C379.666 231.697 379.595 231.627 379.525 231.557C372.665 224.274 362.427 220.792 352.612 222.691C315.778 229.868 281.266 245.171 251.293 268.074C248.232 270.29 247.071 274.09 247.599 277.784C247.704 277.995 247.704 278.311 247.704 278.522C248.232 282.005 250.449 284.96 253.72 286.332C275.145 295.514 350.923 327.916 373.193 337.414C376.675 338.997 380.792 338.364 383.958 336.148C385.084 335.444 386.244 334.776 387.441 334.142C391.029 332.348 393.245 328.549 393.245 324.538V265.752ZM406.755 324.433C406.755 328.443 408.971 332.348 412.559 334.037C413.755 334.67 414.916 335.374 416.042 336.148C419.208 338.364 423.325 338.892 426.807 337.414C449.077 327.916 524.855 295.514 546.28 286.332C549.551 284.96 551.768 281.9 552.295 278.417C552.295 278.206 552.296 277.995 552.401 277.784C552.929 274.09 551.768 270.29 548.707 267.968C518.733 245.172 484.222 229.763 447.388 222.691C437.573 220.792 427.335 224.274 420.475 231.557C420.405 231.627 420.334 231.697 420.264 231.768C411.504 240.844 406.755 253.087 406.755 265.752V324.433ZM507.124 414.459V414.248C506.596 411.082 504.485 408.232 501.53 406.966L432.295 377.414C428.179 375.62 423.324 376.464 420.158 379.631C418.153 381.636 415.831 383.43 413.193 384.802C409.393 386.807 406.755 390.607 406.755 394.934V427.863C406.755 432.823 409.604 437.256 413.931 439.683C416.887 441.372 419.631 443.588 421.847 446.227C425.646 450.765 431.768 452.559 437.256 450.343L501.319 424.697C505.33 423.008 507.757 418.892 507.124 414.459ZM642.639 421.319C636.728 387.546 623.852 355.567 604.644 327.071C598.311 317.678 588.074 311.557 576.675 310.396C574.67 310.185 572.559 309.657 570.449 308.918C567.599 307.968 564.96 306.385 562.638 304.485C557.361 300.264 550.185 299.42 543.958 302.058L433.034 349.446C430.185 350.712 428.39 353.562 428.707 356.623V356.939C428.813 359.578 430.501 361.794 432.823 362.85L493.193 388.707C501.741 392.295 511.662 391.768 519.472 386.596C524.222 383.536 530.132 381.741 536.992 381.847C547.968 381.952 557.467 389.235 561.478 399.472C561.689 400.106 562.005 400.739 562.216 401.372C566.755 413.826 575.937 424.063 588.179 429.235C598.206 433.562 609.288 438.311 617.203 441.689C623.324 444.327 630.185 443.061 635.251 438.945C635.462 438.734 635.673 438.558 635.884 438.417C641.055 434.406 643.799 427.863 642.639 421.319Z" fill="white"/>
<defs>
<linearGradient id="paint0_linear_5001_11662" x1="-0.105486" y1="9.9209" x2="863.958" y2="9.9209" gradientUnits="userSpaceOnUse">
<stop stop-color="#7D9FBF"/>
<stop offset="0.4" stop-color="#B9C6DD"/>
<stop offset="0.7" stop-color="#7D9FBF"/>
<stop offset="1" stop-color="#7D9FBE"/>
</linearGradient>
<linearGradient id="paint1_linear_5001_11662" x1="696.042" y1="-180.581" x2="963.694" y2="687.071" gradientUnits="userSpaceOnUse">
<stop stop-color="#8FA4C8"/>
<stop offset="0.3" stop-color="#678DA3"/>
<stop offset="0.7" stop-color="#7094B2"/>
<stop offset="1" stop-color="#E2E5EC"/>
</linearGradient>
</defs>
</svg>
