<svg width="800" height="800" viewBox="0 0 800 800" fill="none" xmlns="http://www.w3.org/2000/svg">
<path d="M400 800C179.442 800 0 620.558 0 400C0 179.442 179.442 0 400 0C620.558 0 800 179.442 800 400C800 620.558 620.558 800 400 800Z" fill="#6A8290"/>
<path d="M400 9.92126C184.88 9.92126 9.92139 184.88 9.92139 400C9.92139 615.12 184.88 790.079 400 790.079C615.12 790.079 790.079 615.12 790.079 400C790.079 184.88 615.12 9.92126 400 9.92126Z" fill="url(#paint0_linear_4929_11662)"/>
<path d="M400 766.993C197.663 766.993 33.0073 602.337 33.0073 400C33.0073 197.663 197.663 33.0073 400 33.0073C602.337 33.0073 766.993 197.663 766.993 400C766.993 602.337 602.337 766.993 400 766.993Z" fill="#445961"/>
<path d="M763.177 400C763.177 600.525 600.525 763.177 400 763.177C199.475 763.177 36.8232 600.525 36.8232 400C36.8232 199.475 199.475 36.8232 400 36.8232C600.525 36.8232 763.177 199.475 763.177 400Z" fill="url(#paint1_linear_4929_11662)"/>
<path fill-rule="evenodd" clip-rule="evenodd" d="M400 792.941C183.353 792.941 7.05908 616.647 7.05908 400C7.05908 183.353 183.353 7.05945 400 7.05945C616.646 7.05945 792.94 183.353 792.94 400C792.94 616.647 616.646 792.941 400 792.941ZM400 12.7833C186.501 12.7833 12.7829 186.501 12.7829 400C12.7829 613.499 186.501 787.217 400 787.217C613.498 787.217 787.216 613.499 787.216 400C787.216 186.501 613.498 12.7833 400 12.7833Z" fill="#E5E8EE"/>
<path fill-rule="evenodd" clip-rule="evenodd" d="M681.04 467.255C678.369 479.657 667.303 489.006 654.615 489.578C641.736 490.15 631.052 482.328 626.759 471.548C623.325 462.867 616.265 456.189 607.68 452.468L570.475 436.633C562.652 433.198 553.876 433.58 545.958 436.823C542.237 438.254 538.231 439.017 534.033 438.827C527.928 438.54 522.299 436.346 517.816 432.817L437.396 465.061C432.34 467.064 428.238 471.071 426.044 476.127C423.945 480.897 420.511 484.903 416.313 487.861C410.494 491.963 406.773 498.354 406.773 505.509V549.678C406.773 556.451 410.398 562.652 415.932 566.563C423.086 571.619 427.856 579.919 427.856 589.363C427.856 604.627 415.359 617.124 400 617.124C384.641 617.124 372.144 604.627 372.144 589.363C372.144 579.919 376.914 571.619 384.069 566.563C389.602 562.652 393.227 556.451 393.227 549.678V505.509C393.227 498.354 389.507 491.963 383.687 487.861C379.49 484.903 376.056 480.897 373.957 476.127C371.763 471.071 367.661 467.064 362.605 465.061L282.185 432.817C277.701 436.346 272.073 438.54 265.967 438.827C261.77 439.017 257.763 438.254 254.043 436.823C246.125 433.58 237.348 433.198 229.526 436.633L192.321 452.468C183.735 456.189 176.676 462.867 173.241 471.548C168.948 482.328 158.264 490.15 145.385 489.578C132.698 489.006 121.631 479.657 118.96 467.255C116.385 455.617 121.25 444.55 129.836 438.159C137.277 432.721 142.81 424.994 144.527 415.931C151.014 381.302 164.56 348.581 184.307 319.294C190.794 309.659 192.988 297.925 191.367 286.382C190.794 282.948 190.985 279.418 191.844 275.793C194.515 263.964 204.913 254.996 217.029 253.947C220.081 253.756 223.039 253.947 225.805 254.615C235.249 256.714 245.266 255.283 253.279 249.845C284.284 228.476 319.39 214.357 356.595 208.156C364.512 206.821 371.763 202.623 376.056 195.85C381.207 188.028 389.983 182.876 400 182.876C410.017 182.876 418.793 188.028 423.945 195.85C428.238 202.623 435.488 206.821 443.406 208.156C480.611 214.357 515.717 228.476 546.721 249.845C554.734 255.283 564.751 256.714 574.195 254.615C576.962 253.947 579.919 253.756 582.972 253.947C595.087 254.996 605.486 263.964 608.157 275.793C609.015 279.418 609.206 282.948 608.634 286.382C607.012 297.925 609.206 309.659 615.693 319.294C635.44 348.581 648.987 381.302 655.474 415.931C657.191 424.994 662.724 432.721 670.165 438.159C678.75 444.55 683.616 455.617 681.04 467.255ZM306.797 388.839L367.184 362.986C369.568 361.937 371.19 359.647 371.286 357.071L371.381 356.785C371.572 353.637 369.759 350.775 366.897 349.535L256.046 302.123C249.845 299.451 242.595 300.405 237.348 304.603C235.059 306.511 232.387 308.037 229.526 309.087C227.427 309.754 225.233 310.231 223.229 310.422C211.973 311.662 201.67 317.768 195.278 327.212C176.199 355.64 163.32 387.694 157.31 421.464C156.165 427.951 158.836 434.534 164.083 438.54C164.274 438.668 164.465 438.827 164.656 439.017C169.807 443.215 176.676 444.455 182.781 441.784C190.699 438.445 201.765 433.675 211.877 429.382C224.088 424.135 233.246 413.928 237.825 401.431C238.016 400.859 238.302 400.286 238.493 399.618C242.5 389.316 252.039 382.065 263.01 381.875C269.879 381.779 275.793 383.687 280.563 386.74C288.29 391.891 298.211 392.464 306.797 388.839ZM393.227 395.039C393.227 390.746 390.651 386.931 386.835 384.927C384.26 383.496 381.875 381.779 379.776 379.68C376.628 376.532 371.763 375.769 367.661 377.582L298.498 407.155C295.445 408.395 293.346 411.161 292.869 414.405V414.596C292.201 418.984 294.586 423.181 298.688 424.803L362.7 450.465C368.233 452.659 374.434 450.847 378.25 446.363C380.444 443.692 383.115 441.498 386.072 439.781C390.365 437.3 393.227 432.912 393.227 427.951V395.039ZM393.227 265.776C393.227 253.088 388.457 240.878 379.681 231.815C379.617 231.751 379.553 231.656 379.49 231.529C372.621 224.279 362.509 220.844 352.588 222.752C315.765 229.812 281.231 245.266 251.276 268.066C248.223 270.355 246.983 274.076 247.651 277.796C247.651 278.083 247.746 278.273 247.746 278.464C248.223 281.994 250.418 284.951 253.661 286.382C275.125 295.54 350.871 327.975 373.098 337.42C376.723 338.946 380.73 338.373 383.973 336.179C385.055 335.416 386.199 334.748 387.408 334.176C391.033 332.363 393.227 328.548 393.227 324.541V265.776ZM406.773 324.445C406.773 328.548 408.968 332.363 412.593 334.081C413.801 334.717 414.946 335.416 416.027 336.179C419.27 338.373 423.277 338.946 426.902 337.42C449.13 327.88 524.875 295.54 546.339 286.382C549.583 284.951 551.777 281.994 552.254 278.464C552.254 278.273 552.349 277.987 552.349 277.796C553.017 274.076 551.777 270.26 548.724 267.97C518.77 245.171 484.236 229.812 447.413 222.657C437.491 220.749 427.379 224.279 420.511 231.529C420.447 231.592 420.383 231.688 420.32 231.815C411.543 240.878 406.773 253.088 406.773 265.776V324.445ZM507.131 414.5V414.31C506.654 411.066 504.555 408.3 501.503 407.059L432.34 377.486C428.238 375.674 423.372 376.437 420.224 379.585C418.126 381.684 415.741 383.401 413.165 384.832C409.349 386.835 406.773 390.651 406.773 394.944V427.856C406.773 432.817 409.635 437.3 413.928 439.685C416.885 441.402 419.557 443.596 421.751 446.268C425.567 450.751 431.767 452.564 437.3 450.37L501.312 424.708C505.414 423.086 507.799 418.889 507.131 414.5ZM642.69 421.369C636.68 387.598 623.802 355.545 604.722 327.117C598.331 317.672 588.028 311.567 576.771 310.327C574.768 310.136 572.574 309.659 570.475 308.991C567.613 307.942 564.942 306.415 562.652 304.508C557.405 300.31 550.155 299.356 543.954 302.027L433.103 349.44C430.241 350.68 428.429 353.542 428.619 356.69L428.715 356.976C428.81 359.552 430.432 361.841 432.817 362.891L493.203 388.743C501.789 392.368 511.71 391.796 519.437 386.644C524.207 383.592 530.122 381.684 536.99 381.779C547.961 381.97 557.501 389.22 561.507 399.523C561.698 400.191 561.984 400.763 562.175 401.336C566.754 413.833 575.912 424.04 588.123 429.287C598.235 433.58 609.301 438.35 617.219 441.689C623.325 444.36 630.193 443.119 635.345 438.922C635.536 438.731 635.726 438.572 635.917 438.445C641.164 434.438 643.835 427.856 642.69 421.369Z" fill="white"/>
<defs>
<linearGradient id="paint0_linear_4929_11662" x1="602.242" y1="-324.923" x2="1124.54" y2="605.867" gradientUnits="userSpaceOnUse">
<stop stop-color="#D0D5E1"/>
<stop offset="0.3" stop-color="#889EB1"/>
<stop offset="0.4" stop-color="#6D8998"/>
<stop offset="0.6" stop-color="#D0D5E1"/>
<stop offset="0.7" stop-color="#859CAF"/>
<stop offset="1" stop-color="#8598A9"/>
</linearGradient>
<linearGradient id="paint1_linear_4929_11662" x1="623.706" y1="-243.74" x2="1053.28" y2="620.558" gradientUnits="userSpaceOnUse">
<stop stop-color="#98A7BB"/>
<stop offset="0.1" stop-color="#8098A9"/>
<stop offset="0.4" stop-color="#688591"/>
<stop offset="0.6" stop-color="#688591"/>
<stop offset="0.8" stop-color="#829AAD"/>
<stop offset="1" stop-color="#E1E5ED"/>
</linearGradient>
</defs>
</svg>
