<svg xmlns="http://www.w3.org/2000/svg" xmlns:xlink="http://www.w3.org/1999/xlink" viewBox="0 0 185.33 185.37"><defs><style>.cls-1{fill:url(#linear-gradient);}.cls-2{fill:url(#linear-gradient-2);}.cls-3{fill:url(#linear-gradient-3);}.cls-4{fill:#29499d;}.cls-5{fill:#fff;}</style><linearGradient id="linear-gradient" x1="-25.25" y1="15.48" x2="160.08" y2="15.48" gradientTransform="matrix(-0.87, -0.49, -2.93, 5.24, 196.8, 44.6)" gradientUnits="userSpaceOnUse"><stop offset="0" stop-color="#f01686"/><stop offset="0.28" stop-color="#f01989"/><stop offset="0.67" stop-color="#b62890"/><stop offset="0.88" stop-color="#7d3f9b"/><stop offset="1" stop-color="#7c3e9b"/></linearGradient><linearGradient id="linear-gradient-2" x1="0.1" y1="92.6" x2="185.33" y2="92.6" gradientUnits="userSpaceOnUse"><stop offset="0" stop-color="#bd076d"/><stop offset="0.09" stop-color="#ab0775"/><stop offset="0.18" stop-color="#a0077a"/><stop offset="0.28" stop-color="#9c077c"/><stop offset="0.67" stop-color="#631687"/><stop offset="0.89" stop-color="#4a238c"/><stop offset="1" stop-color="#4a238c"/></linearGradient><linearGradient id="linear-gradient-3" x1="261.88" y1="268.87" x2="175.93" y2="120" gradientTransform="matrix(1, 0, 0, -1, -125.99, 286.7)" gradientUnits="userSpaceOnUse"><stop offset="0" stop-color="#bd076d"/><stop offset="0" stop-color="#bf0c71"/><stop offset="0.03" stop-color="#c82e89"/><stop offset="0.05" stop-color="#d0499b"/><stop offset="0.08" stop-color="#d65ca8"/><stop offset="0.1" stop-color="#d967b0"/><stop offset="0.13" stop-color="#da6bb3"/><stop offset="0.28" stop-color="#9c077c"/><stop offset="0.67" stop-color="#631687"/><stop offset="0.8" stop-color="#5659a7"/><stop offset="0.89" stop-color="#4a238c"/></linearGradient></defs><g id="Layer_2" data-name="Layer 2"><g id="Layer_1-2" data-name="Layer 1"><circle class="cls-1" cx="92.65" cy="92.73" r="92.65"/><path class="cls-2" d="M181.76,67.54a92,92,0,1,0,2.79,36A92,92,0,0,0,181.76,67.54Zm.08,0a92.59,92.59,0,1,1-16.41-32.24,92.59,92.59,0,0,1,16.41,32.24Z"/><circle class="cls-3" cx="92.65" cy="92.73" r="86.46"/><path class="cls-4" d="M6.27,92.73a85.33,85.33,0,1,0,6.69-33A86.6,86.6,0,0,0,6.27,92.73Zm-.18,0a87.09,87.09,0,1,1,6.58,33.13A87.09,87.09,0,0,1,6.09,92.73Z"/><path class="cls-5" d="M109.61,134.13c-17-2.68-30.47-15.29-31.52-32.79-1.23-20.51-.29-41.16-.29-63.26,8.35,4.34,16.39,8.15,24,12.75,1.72,1.05,2.43,4.83,2.49,7.38.25,11.89-.13,23.8.26,35.68.13,3.75,1,8.22,3.31,10.91,1.92,2.27,6.59,3.72,9.55,3.11,2.17-.45,4.91-4.74,5-7.44.55-12.14.51-24.34.08-36.5a10,10,0,0,0-4.37-7.15c-11.84-6.62-24-12.69-36.05-18.91-1.25-.64-3.16-1.86-3.86-1.41C70.2,41.73,62,46.77,54.7,52.9c-2.34,2-2.79,7-2.91,10.63-.35,11,.49,22.13-.24,33.12-2,30.14,26.14,54.37,59.22,48.39,1.58-.28,3.89-.38,6.32-.91a58.25,58.25,0,0,0,20.52-17.78C130,133,120.32,135.82,109.61,134.13Z"/></g></g></svg>