<svg width="105" height="105" viewBox="0 0 105 105" fill="none" xmlns="http://www.w3.org/2000/svg">
<g clip-path="url(#clip0)">
<path d="M52.0427 104.361C80.8261 104.361 104.16 80.9993 104.16 52.1807C104.16 23.3621 80.8261 0 52.0427 0C23.2593 0 -0.0742188 23.3621 -0.0742188 52.1807C-0.0742188 80.9993 23.2593 104.361 52.0427 104.361Z" fill="url(#paint0_radial)"/>
<path d="M102.172 38.0016C98.6831 25.6249 90.7226 14.9892 79.8379 8.1614C68.9532 1.33363 55.9218 -1.19839 43.2765 1.05743C30.6311 3.31326 19.2751 10.1958 11.4156 20.3674C3.55599 30.539 -0.245685 43.273 0.749398 56.0946C1.74448 68.9161 7.46524 80.9093 16.7998 89.7432C26.1344 98.5771 38.416 103.621 51.2576 103.894C64.0992 104.166 76.5835 99.6493 86.2841 91.22C95.9847 82.7907 102.209 71.0514 103.746 58.2837C104.555 51.485 104.02 44.5935 102.172 38.0016ZM102.221 37.9878C105.723 50.4484 104.47 63.7674 98.7074 75.3547C92.9447 86.9419 83.0837 95.9692 71.0421 100.681C59.0005 105.393 45.6391 105.452 33.5562 100.847C21.4734 96.2425 11.5329 87.3031 5.66787 75.7674C-0.197155 64.2317 -1.56745 50.9243 1.82347 38.4332C5.21438 25.942 13.1241 15.1601 24.0145 8.184C34.9048 1.20795 47.9972 -1.46348 60.7457 0.68923C73.4942 2.84194 84.9873 9.6649 92.99 19.8312C97.2264 25.2189 100.363 31.3882 102.221 37.9878Z" fill="#FF4ACC"/>
<path d="M52.007 100.875C78.8701 100.875 100.647 79.0718 100.647 52.1759C100.647 25.28 78.8701 3.47656 52.007 3.47656C25.144 3.47656 3.36719 25.28 3.36719 52.1759C3.36719 79.0718 25.144 100.875 52.007 100.875Z" fill="url(#paint1_linear)"/>
<path d="M3.39871 52.1751C3.38142 64.0982 7.79071 75.6021 15.7702 84.4527C23.7497 93.3032 34.7298 98.8686 46.5779 100.068C58.426 101.267 70.2965 98.0147 79.8838 90.9423C89.471 83.8699 96.0908 73.4822 98.4573 61.7969C100.824 50.1116 98.7682 37.9628 92.6897 27.7099C86.6112 17.457 76.9436 9.83202 65.5647 6.3158C54.1858 2.79957 41.9078 3.64314 31.1153 8.68265C20.3227 13.7222 11.7861 22.5979 7.1634 33.586C4.70387 39.4755 3.42472 45.7916 3.39871 52.1751ZM3.29689 52.1751C3.286 39.9937 7.80273 28.2441 15.9679 19.2135C24.133 10.1828 35.3623 4.51729 47.4699 3.31974C59.5774 2.12219 71.6968 5.47831 81.469 12.7348C91.2411 19.9913 97.9668 30.6289 100.337 42.5769C102.707 54.525 100.551 66.9285 94.29 77.373C88.0288 87.8175 78.1099 95.5556 66.4641 99.081C54.8183 102.607 42.279 101.667 31.2869 96.4455C20.2948 91.224 11.6366 82.0941 6.99769 70.833C4.5548 64.9166 3.29736 58.5771 3.29689 52.1751Z" fill="#FF4ACC"/>
<path d="M42.9882 26.1023C42.2042 25.9812 42.1711 25.9672 42.5399 25.9106C43.2471 25.8026 44.9166 25.9499 46.0671 26.2221C48.7531 26.8574 51.1972 28.4852 53.8052 31.3755L54.4984 32.1436L55.4898 31.9848C59.6669 31.3169 63.9152 31.8477 67.4701 33.4816C68.4478 33.9312 69.9901 34.826 70.1823 35.0558C70.3107 35.3929 70.3948 35.7453 70.4325 36.1041C70.6965 37.8455 70.5644 39.1804 70.0293 40.1774C69.7379 40.7197 69.7216 40.891 69.9176 41.3561C70.0112 41.5483 70.1567 41.7105 70.3376 41.8243C70.5184 41.9381 70.7275 41.999 70.9411 42.0001C71.8241 42.0001 72.7738 40.5783 73.2154 38.6011L73.3905 37.8159L73.737 38.2066C75.6382 40.3502 77.1316 43.2734 77.3881 45.3542L77.4548 45.8968L77.1354 45.4037C76.676 44.649 76.0583 44.0032 75.3251 43.5111C74.0493 42.6701 72.7005 42.3854 69.1287 42.1981C65.9027 42.0289 64.0766 41.7547 62.2663 41.1672C59.1863 40.1677 57.6336 38.8369 53.974 34.0594C52.3488 31.9374 51.3441 30.7636 50.345 29.8181C48.0752 27.6699 45.8442 26.5437 42.9882 26.1023Z" fill="#FF007A"/>
<path d="M70.8722 30.821C70.9537 29.3992 71.1471 28.4613 71.5368 27.6048C71.6228 27.3889 71.7304 27.1824 71.858 26.9883C71.8336 27.1796 71.7833 27.3666 71.7086 27.5444C71.4256 28.3757 71.3777 29.5126 71.574 30.8353C71.8216 32.5138 71.9627 32.7559 73.7452 34.5687C74.5814 35.4191 75.554 36.4915 75.9063 36.9521L76.5475 37.7893L75.9063 37.1911C75.1226 36.4592 73.3196 35.0323 72.9215 34.8284C72.6543 34.6915 72.6146 34.6938 72.4499 34.8569C72.2971 35.0073 72.2661 35.2333 72.2462 36.3012C72.2134 37.9654 71.9853 39.0337 71.4353 40.1018C71.1377 40.6796 71.0906 40.5562 71.3589 39.9043C71.5597 39.4173 71.5803 39.2032 71.5791 37.592C71.5758 34.3554 71.1896 33.5765 68.925 32.2434C68.3512 31.9057 67.4056 31.4187 66.824 31.161C66.4701 31.0195 66.1269 30.8527 65.7969 30.662C65.861 30.5985 68.0697 31.24 68.9591 31.5795C70.2814 32.0856 70.4996 32.1511 70.6602 32.0892C70.7681 32.0502 70.8203 31.7383 70.8722 30.821Z" fill="#FF007A"/>
<path d="M44.4897 36.3591C42.8981 34.1785 41.9133 30.8351 42.1266 28.3357L42.1925 27.5625L42.5547 27.6283C43.3935 27.8102 44.2024 28.1099 44.9576 28.5182C46.465 29.4293 47.1176 30.6287 47.7815 33.7086C47.976 34.6108 48.231 35.6317 48.3486 35.9768C48.7512 36.9244 49.2483 37.829 49.8324 38.6767C50.2508 39.2845 49.9729 39.5725 49.0484 39.4894C47.6364 39.363 45.7235 38.0495 44.4897 36.3591Z" fill="#FF007A"/>
<path d="M68.9858 52.6021C61.5476 49.6219 58.9278 47.0348 58.9278 42.67C58.9118 42.2799 58.9283 41.8892 58.9772 41.502C59.2011 41.6438 59.4148 41.8013 59.6166 41.9732C61.125 43.1771 62.8142 43.6912 67.4899 44.3701C70.2417 44.7697 71.7901 45.0923 73.2171 45.5636C77.7571 47.0619 80.566 50.1025 81.2352 54.2442C81.4122 55.7964 81.3328 57.3673 81 58.8937C80.7511 59.8331 79.9907 61.5264 79.7889 61.5916C79.7329 61.6095 79.6784 61.3961 79.6639 61.1061C79.6037 60.2929 79.3782 59.5006 79.0012 58.7778C78.6242 58.055 78.1037 57.417 77.4715 56.9028C75.9657 55.6135 73.9398 54.5867 68.9858 52.6021Z" fill="#FF007A"/>
<path d="M63.758 53.8459C63.6705 53.3169 63.5505 52.7938 63.3988 52.2795L63.2089 51.7168L63.5615 52.1105C64.1013 52.7473 64.5093 53.4853 64.7616 54.2814C65.0108 54.9904 65.0391 55.2012 65.0371 56.3529C65.0353 57.4836 65.004 57.7207 64.7739 58.3588C64.4523 59.2989 63.9145 60.1502 63.2038 60.8439C61.8451 62.2201 60.0984 62.9819 57.5784 63.2979C57.1401 63.3527 55.8631 63.4452 54.7403 63.5033C51.9105 63.6498 50.0483 63.9524 48.3747 64.5372C48.2238 64.6039 48.0621 64.6424 47.8974 64.6509C47.8297 64.5836 48.9693 63.9078 49.9103 63.4564C51.2373 62.8193 52.5576 62.4734 55.5177 61.9828C56.9798 61.7405 58.4895 61.4476 58.873 61.3296C62.4924 60.2249 64.3536 57.3743 63.758 53.8459Z" fill="#FF007A"/>
<path d="M67.1828 59.8662C66.1947 57.7509 65.9677 55.7108 66.5091 53.8073C66.5671 53.6034 66.6603 53.4375 66.7163 53.4375C66.9017 53.5044 67.0763 53.5983 67.2345 53.7161C67.6899 54.0219 68.6034 54.5349 71.0366 55.8553C74.0731 57.5032 75.804 58.7775 76.982 60.236C78.0242 61.5372 78.7059 63.0903 78.9583 64.739C79.1321 65.7429 79.03 68.1592 78.7712 69.1702C77.9546 72.3584 76.0572 74.8626 73.3509 76.3242C73.0958 76.4711 72.8317 76.6016 72.5601 76.7149C72.6255 76.4294 72.7337 76.1555 72.881 75.9024C73.3288 75.0118 73.5888 74.0386 73.6448 73.0431C73.7009 72.0476 73.5518 71.0513 73.2069 70.1159C72.7853 68.8603 71.926 67.3283 70.191 64.7385C68.1735 61.7289 67.6792 60.9279 67.1828 59.8662Z" fill="#FF007A"/>
<path d="M39.1979 71.2567C41.9585 68.9376 45.3928 67.2897 48.5213 66.7838C50.1348 66.576 51.7715 66.639 53.3643 66.9703C55.3655 67.48 57.1557 68.6218 58.0868 69.9817C58.9968 71.311 59.387 72.4693 59.7922 75.0467C59.9526 76.0635 60.127 77.084 60.1797 77.3149C60.4851 78.6506 61.079 79.7179 61.8148 80.2544C62.984 81.1061 64.9966 81.1586 66.9772 80.3899C67.1836 80.2949 67.4016 80.2276 67.6255 80.1896C67.6976 80.2607 66.7003 80.9249 65.9965 81.2745C65.1666 81.7168 64.2383 81.9413 63.2983 81.927C61.4847 81.927 59.9791 81.0095 58.7227 79.1368C58.2605 78.3458 57.8481 77.5267 57.4876 76.6844C56.1609 73.6735 55.506 72.7563 53.9658 71.7524C52.6253 70.8793 50.8965 70.7225 49.596 71.3571C47.8878 72.1908 47.411 74.3644 48.6346 75.7406C49.2072 76.3326 49.9563 76.7224 50.7692 76.8513C51.092 76.8951 51.4205 76.869 51.7323 76.7746C52.0442 76.6803 52.3322 76.52 52.5768 76.3046C52.8214 76.0891 53.0169 75.8236 53.1501 75.5259C53.2832 75.2283 53.351 74.9054 53.3487 74.5793C53.3487 73.6743 52.999 73.1579 52.119 72.7627C50.9173 72.2229 49.6245 72.8539 49.6317 73.9773C49.6231 74.1966 49.6864 74.4127 49.8118 74.5928C49.9373 74.7728 50.118 74.9068 50.3266 74.9745C50.6361 75.1139 50.6435 75.1249 50.391 75.0727C49.2883 74.8451 49.0299 73.5224 49.9165 72.6442C50.981 71.5901 53.182 72.0549 53.9383 73.4943C54.2559 74.0989 54.2926 75.3038 54.0146 76.0294C53.3948 77.6566 51.5883 78.5119 49.7554 78.0466C48.5081 77.7293 47.999 77.3862 46.4952 75.8441C43.881 73.1641 42.8659 72.6449 39.0971 72.0595L38.375 71.9474L39.1979 71.2567Z" fill="#FF007A"/>
<path fill-rule="evenodd" clip-rule="evenodd" d="M26.9848 23.2889C35.7156 33.8333 41.7282 38.1836 42.3964 39.1029C42.948 39.8618 42.7405 40.5441 41.7952 41.0788C41.1252 41.4164 40.3957 41.6197 39.6478 41.6772C39.0369 41.6772 38.8259 41.4425 38.8259 41.4425C38.4711 41.1076 38.2713 41.1662 36.4492 37.9476C33.9193 34.0415 31.8026 30.801 31.7448 30.7467C31.6111 30.6213 31.6134 30.6257 36.1911 38.7764C36.9308 40.4753 36.3383 41.0989 36.3383 41.3408C36.3383 41.8331 36.2034 42.0918 35.5932 42.768C34.575 43.8972 34.1214 45.1661 33.7931 47.7919C33.4253 50.7355 32.3906 52.8148 29.5229 56.3736C27.8444 58.4568 27.5698 58.8386 27.1462 59.6781C26.6117 60.7354 26.4661 61.3277 26.4068 62.6627C26.3215 63.9079 26.4891 65.1575 26.8996 66.3361C27.2791 67.5179 27.6751 68.2985 28.6875 69.8585C29.5613 71.2051 30.0643 72.2062 30.0643 72.5976C30.0643 72.9091 30.1241 72.9096 31.4783 72.605C34.7183 71.8772 37.3493 70.5965 38.8292 69.0269C39.7456 68.0556 39.9599 67.5192 39.967 66.1883C39.9716 65.3175 39.9416 65.1352 39.7043 64.6337C39.3192 63.8182 38.6185 63.1405 37.0736 62.0897C35.0495 60.7135 34.1851 59.6044 33.9461 58.0799C33.7503 56.829 33.9776 55.9465 35.0974 53.611C36.2563 51.1937 36.5434 50.1636 36.7376 47.7272C36.8631 46.1529 37.037 45.5321 37.4916 45.0339C37.9656 44.5142 38.3922 44.3381 39.5654 44.1786C41.478 43.9186 42.6962 43.4262 43.6968 42.5083C44.0966 42.1766 44.419 41.7613 44.6414 41.2917C44.8638 40.822 44.9809 40.3093 44.9843 39.7895L45.0266 38.914L44.5414 38.3511C42.7851 36.3122 25.8071 21.6836 25.6999 21.6836C25.6767 21.6861 26.255 22.4074 26.9848 23.2889ZM31.0509 64.2603C31.2424 63.9224 31.2995 63.5246 31.2109 63.1464C31.1222 62.7681 30.8943 62.4373 30.5726 62.22C29.9446 61.8046 28.969 62.0005 28.969 62.5419C28.969 62.7072 29.0609 62.8273 29.2678 62.9333C29.6163 63.1117 29.6415 63.3125 29.3673 63.7234C29.0896 64.1388 29.1128 64.504 29.4305 64.7519C29.9439 65.1523 30.6704 64.9316 31.0509 64.2603Z" fill="#FF007A"/>
<path fill-rule="evenodd" clip-rule="evenodd" d="M46.2249 44.6625C45.3272 44.937 44.4543 45.8841 44.1843 46.877C44.0193 47.4828 44.113 48.5452 44.3597 48.8732C44.7585 49.4033 45.1442 49.543 46.1885 49.5359C48.2333 49.5218 50.0108 48.649 50.2175 47.5582C50.387 46.6639 49.6066 45.4246 48.5309 44.8804C47.8001 44.5831 46.9983 44.5074 46.2249 44.6625ZM48.6151 46.523C48.9305 46.0772 48.7933 45.5953 48.2565 45.2696C47.235 44.649 45.6907 45.1626 45.6907 46.1226C45.6907 46.6005 46.496 47.1219 47.2342 47.1219C47.7267 47.1214 48.3982 46.8298 48.6154 46.5225L48.6151 46.523Z" fill="#FF007A"/>
</g>
<defs>
<radialGradient id="paint0_radial" cx="0" cy="0" r="1" gradientUnits="userSpaceOnUse" gradientTransform="translate(52.0443 52.1812) rotate(-150.753) scale(52.1321 312.993)">
<stop stop-color="white"/>
<stop offset="0.004" stop-color="#FFF2FC"/>
<stop offset="0.012" stop-color="#FFDCF6"/>
<stop offset="0.021" stop-color="#FFCBF2"/>
<stop offset="0.033" stop-color="#FFC0EF"/>
<stop offset="0.049" stop-color="#FFB9ED"/>
<stop offset="0.094" stop-color="#FFB7ED"/>
<stop offset="0.825" stop-color="#FFB7ED"/>
<stop offset="0.946" stop-color="#FFB7ED"/>
<stop offset="0.957" stop-color="#FFBCEE"/>
<stop offset="0.971" stop-color="#FFCCF2"/>
<stop offset="0.987" stop-color="#FFE6F9"/>
<stop offset="1" stop-color="white"/>
</radialGradient>
<linearGradient id="paint1_linear" x1="76.3309" y1="94.3579" x2="27.5936" y2="10.0456" gradientUnits="userSpaceOnUse">
<stop stop-color="white"/>
<stop offset="0.06" stop-color="#FFEBFA"/>
<stop offset="0.151" stop-color="#FFD4F4"/>
<stop offset="0.25" stop-color="#FFC4F0"/>
<stop offset="0.359" stop-color="#FFBAEE"/>
<stop offset="0.5" stop-color="#FFB7ED"/>
<stop offset="0.613" stop-color="#FFBBEE"/>
<stop offset="0.734" stop-color="#FFC8F1"/>
<stop offset="0.859" stop-color="#FFDEF7"/>
<stop offset="0.986" stop-color="#FFFBFE"/>
<stop offset="1" stop-color="white"/>
</linearGradient>
<clipPath id="clip0">
<rect width="105" height="105" fill="white"/>
</clipPath>
</defs>
</svg>
