<svg xmlns="http://www.w3.org/2000/svg" viewBox="0 0 41 27" width="41" height="27">
	<defs>
		<clipPath clipPathUnits="userSpaceOnUse" id="cp1">
			<path d="M2 4L28 4L28 2C28 0.9 27.1 0 26 0L2 0C0.9 0 0 0.9 0 2L0 15C0 16.1 0.9 17 2 17L19.25 17C20.14 13.55 23.27 11 27 11C27.34 11 27.67 11.02 28 11.06L28 6L2 6L2 4Z" />
		</clipPath>
	</defs>
	<style>
		tspan { white-space:pre }
		.shp0 { fill: #0a57a4 } 
		.shp1 { fill: none;stroke: #000000;stroke-linecap:round;stroke-linejoin:round } 
	</style>
	<g id="Clip-Path" clip-path="url(#cp1)">
		<g id="Layer">
			<path id="Layer" class="shp0" d="M-11 -16L39 -16L39 34L-11 34L-11 -16Z" />
		</g>
	</g>
	<path id="Layer" class="shp1" d="M30 19L40 19M40 19L36.25 15M40 19L36.25 23" />
	<path id="Layer" fill-rule="evenodd" class="shp0" d="M33.46 21C32.6 23.89 29.92 26 26.75 26C22.88 26 19.75 22.87 19.75 19C19.75 15.13 22.88 12 26.75 12C29.92 12 32.6 14.11 33.46 17L34.5 17C33.61 13.55 30.48 11 26.75 11C22.33 11 18.75 14.58 18.75 19C18.75 23.42 22.33 27 26.75 27C30.48 27 33.61 24.45 34.5 21L33.46 21Z" />
</svg>