<svg width="13" height="14" viewBox="0 0 13 14" fill="none" xmlns="http://www.w3.org/2000/svg">
<path d="M8.127 6.65C8.127 7.077 7.812 7.427 7.413 7.427C7.021 7.427 6.699 7.077 6.699 6.65C6.699 6.223 7.014 5.873 7.413 5.873C7.812 5.873 8.127 6.223 8.127 6.65ZM4.858 5.873C4.459 5.873 4.144 6.223 4.144 6.65C4.144 7.077 4.466 7.427 4.858 7.427C5.257 7.427 5.572 7.077 5.572 6.65C5.579 6.223 5.257 5.873 4.858 5.873ZM12.25 1.442V14C10.4865 12.4416 11.0505 12.9574 9.002 11.053L9.373 12.348H1.435C0.644 12.348 0 11.704 0 10.906V1.442C0 0.644 0.644 0 1.435 0H10.815C11.606 0 12.25 0.644 12.25 1.442ZM10.255 8.078C10.255 5.824 9.247 3.997 9.247 3.997C8.239 3.241 7.28 3.262 7.28 3.262L7.182 3.374C8.372 3.738 8.925 4.263 8.925 4.263C7.2622 3.35166 5.30895 3.3515 3.696 4.06C3.437 4.179 3.283 4.263 3.283 4.263C3.283 4.263 3.864 3.71 5.124 3.346L5.054 3.262C5.054 3.262 4.095 3.241 3.087 3.997C3.087 3.997 2.079 5.824 2.079 8.078C2.079 8.078 2.667 9.093 4.214 9.142C4.214 9.142 4.473 8.827 4.683 8.561C3.794 8.295 3.458 7.735 3.458 7.735C3.56098 7.80708 3.73078 7.90051 3.745 7.91C4.92652 8.57166 6.60483 8.78845 8.113 8.155C8.358 8.064 8.631 7.931 8.918 7.742C8.918 7.742 8.568 8.316 7.651 8.575C7.861 8.841 8.113 9.142 8.113 9.142C9.66 9.093 10.255 8.078 10.255 8.078Z" fill="white"/>
</svg>
