<svg width="15" height="14" viewBox="0 0 15 14" fill="none" xmlns="http://www.w3.org/2000/svg">
<path d="M4.80266 11.2728C4.80266 11.3307 4.73607 11.377 4.65212 11.377C4.55659 11.3857 4.49001 11.3394 4.49001 11.2728C4.49001 11.2149 4.55659 11.1686 4.64054 11.1686C4.72739 11.1599 4.80266 11.2062 4.80266 11.2728ZM3.90234 11.1425C3.88207 11.2004 3.93997 11.267 4.02682 11.2844C4.10209 11.3133 4.18893 11.2844 4.2063 11.2265C4.22367 11.1686 4.16867 11.102 4.08182 11.0759C4.00656 11.0557 3.9226 11.0846 3.90234 11.1425ZM5.18189 11.0933C5.09794 11.1136 5.04004 11.1686 5.04872 11.2351C5.05741 11.293 5.13268 11.3307 5.21952 11.3104C5.30347 11.2901 5.36137 11.2351 5.35269 11.1772C5.344 11.1222 5.26584 11.0846 5.18189 11.0933ZM7.08674 0C3.0715 0 0 3.04834 0 7.06358C0 10.274 2.02065 13.0213 4.90687 13.9882C5.27742 14.0548 5.40769 13.8261 5.40769 13.6379C5.40769 13.4584 5.39901 12.4684 5.39901 11.8604C5.39901 11.8604 3.37257 12.2947 2.94702 10.9978C2.94702 10.9978 2.617 10.1553 2.14223 9.93822C2.14223 9.93822 1.4793 9.48372 2.18855 9.49241C2.18855 9.49241 2.90938 9.55031 3.30599 10.2393C3.93997 11.3567 5.0024 11.0354 5.41638 10.8443C5.48296 10.3811 5.67113 10.0598 5.87956 9.86875C4.26131 9.68926 2.62858 9.45478 2.62858 6.66987C2.62858 5.87377 2.84859 5.47427 3.31178 4.96477C3.23651 4.7766 2.99044 4.00077 3.38704 2.99913C3.99208 2.81096 5.38453 3.78075 5.38453 3.78075C5.96351 3.61864 6.58592 3.53469 7.20254 3.53469C7.81915 3.53469 8.44156 3.61864 9.02054 3.78075C9.02054 3.78075 10.413 2.80806 11.018 2.99913C11.4146 4.00366 11.1686 4.7766 11.0933 4.96477C11.5565 5.47717 11.8402 5.87667 11.8402 6.66987C11.8402 9.46346 10.1351 9.68637 8.51682 9.86875C8.78316 10.0974 9.00896 10.5317 9.00896 11.212C9.00896 12.1876 9.00027 13.3947 9.00027 13.6321C9.00027 13.8203 9.13344 14.049 9.50109 13.9824C12.396 13.0213 14.3588 10.274 14.3588 7.06358C14.3588 3.04834 11.102 0 7.08674 0ZM2.81385 9.98454C2.77622 10.0135 2.7849 10.0801 2.83412 10.1351C2.88044 10.1814 2.94702 10.2017 2.98465 10.164C3.02229 10.1351 3.0136 10.0685 2.96439 10.0135C2.91807 9.96717 2.85149 9.94691 2.81385 9.98454ZM2.5012 9.75006C2.48094 9.78769 2.50989 9.83401 2.56779 9.86296C2.6141 9.89191 2.672 9.88322 2.69227 9.84269C2.71253 9.80506 2.68358 9.75874 2.62568 9.72979C2.56779 9.71242 2.52147 9.72111 2.5012 9.75006ZM3.43915 10.7806C3.39283 10.8183 3.4102 10.9051 3.47679 10.9601C3.54337 11.0267 3.62732 11.0354 3.66496 10.9891C3.70259 10.9514 3.68522 10.8646 3.62732 10.8096C3.56363 10.743 3.47679 10.7343 3.43915 10.7806ZM3.10913 10.3551C3.06281 10.384 3.06281 10.4593 3.10913 10.5259C3.15545 10.5925 3.23361 10.6214 3.27125 10.5925C3.31757 10.5548 3.31757 10.4796 3.27125 10.413C3.23072 10.3464 3.15545 10.3175 3.10913 10.3551Z" fill="white"/>
</svg>
