<svg width="16" height="12" viewBox="0 0 16 12" fill="none" xmlns="http://www.w3.org/2000/svg">
<path d="M1.89539 2.44815C1.91524 2.26368 1.83916 2.07921 1.69361 1.95414L0.201778 0.253257V0H4.83936L8.42506 7.432L11.5774 0H16V0.253257L14.7232 1.41011C14.614 1.48828 14.5578 1.61959 14.5809 1.74779V10.2522C14.5578 10.3804 14.614 10.5117 14.7232 10.5899L15.9702 11.7467V12H9.69526V11.7467L10.9886 10.5618C11.1143 10.4429 11.1143 10.4054 11.1143 10.2241V3.35175L7.51871 11.9781H7.03246L2.85135 3.35175V9.13288C2.81497 9.37676 2.90097 9.62064 3.0829 9.79573L4.76328 11.7217V11.975H0V11.7249L1.68038 9.79573C1.859 9.62064 1.9417 9.37363 1.89539 9.13288V2.44815Z" fill="white"/>
</svg>
