<svg width="2133" height="1207" viewBox="0 0 2133 1207" fill="none" xmlns="http://www.w3.org/2000/svg">
<g clip-path="url(#clip0_4916_14856)">
<path d="M1066 1089C1340.49 1089 1563 866.486 1563 592C1563 317.514 1340.49 95 1066 95C791.514 95 569 317.514 569 592C569 866.486 791.514 1089 1066 1089Z" fill="url(#paint0_radial_4916_14856)"/>
<path d="M1669 603C1669 936.028 1399.03 1206 1066 1206C732.972 1206 463 936.028 463 603C463 269.972 732.972 0 1066 0C1399.03 0 1669 269.972 1669 603Z" fill="url(#paint1_radial_4916_14856)"/>
<path d="M1699.67 542.413L1541.33 1133.32L2132.24 974.986L1699.67 542.413Z" fill="url(#paint2_linear_4916_14856)"/>
<path d="M432.986 542.414L591.319 1133.32L0.414062 974.986L432.986 542.414Z" fill="url(#paint3_linear_4916_14856)"/>
<mask id="path-5-inside-1_4916_14856" fill="white">
<path fill-rule="evenodd" clip-rule="evenodd" d="M236.761 1198.37C225.799 1196.05 217.577 1186.35 217.155 1175.18C216.733 1164.01 223.48 1154.52 232.966 1150.73C240.556 1147.77 246.459 1141.45 249.621 1133.86L263.746 1101.39C266.697 1094.44 266.276 1086.64 263.535 1079.68C262.27 1076.52 261.427 1072.93 261.638 1069.35C261.848 1063.87 263.957 1059.02 266.908 1055.02L238.659 984.391C236.972 979.964 233.388 976.38 228.961 974.272C224.745 972.585 221.161 969.634 218.631 965.839C215.047 960.78 209.355 957.406 203.241 957.406L164.451 957.406C158.337 957.406 152.856 960.569 149.483 965.628C145.055 971.742 137.677 975.958 129.455 975.958C115.963 975.958 105 964.996 105 951.504C105 938.011 115.963 927.049 129.455 927.049C137.677 927.049 145.055 931.265 149.483 937.379C152.856 942.438 158.337 945.601 164.451 945.601L203.241 945.601C209.355 945.601 215.047 942.228 218.631 937.168C221.161 933.373 224.745 930.422 228.961 928.735C233.388 926.627 236.972 923.043 238.659 918.616L266.908 847.992C263.957 843.987 261.848 839.138 261.638 833.656C261.427 830.073 262.27 826.489 263.535 823.326C266.276 816.369 266.697 808.569 263.746 801.612L249.621 769.146C246.459 761.557 240.556 755.232 232.966 752.281C223.48 748.486 216.733 738.999 217.155 727.826C217.577 716.653 225.799 706.955 236.761 704.636C246.88 702.317 256.789 706.533 262.27 714.123C267.119 720.658 273.865 725.507 281.876 726.983C312.234 732.675 341.116 744.691 366.625 761.978C375.268 767.671 385.388 769.568 395.718 768.092C398.669 767.671 401.761 767.811 404.994 768.514C415.324 771.044 423.335 780.109 424.178 790.86C424.319 793.531 424.108 796.061 423.546 798.45C421.648 806.883 422.913 815.526 427.762 822.483C446.525 849.889 458.963 880.669 464.444 913.346C465.498 920.303 469.293 926.627 475.196 930.422C482.153 935.06 486.58 942.649 486.58 951.504C486.58 960.358 482.153 967.947 475.196 972.585C469.293 976.38 465.498 982.705 464.444 989.662C458.963 1022.34 446.525 1053.12 427.762 1080.52C422.913 1087.48 421.648 1096.12 423.546 1104.56C424.108 1106.95 424.319 1109.48 424.178 1112.15C423.335 1122.9 415.324 1131.96 404.994 1134.49C401.761 1135.2 398.669 1135.34 395.718 1134.91C385.388 1133.44 375.268 1135.34 366.625 1141.03C341.116 1158.32 312.234 1170.33 281.876 1176.02C273.865 1177.5 267.119 1182.35 262.27 1188.88C256.789 1196.47 246.88 1200.69 236.761 1198.37ZM305.699 869.495L328.256 922.622C329.31 924.73 331.207 926.205 333.526 926.205L333.737 926.416C336.478 926.416 339.008 924.941 340.062 922.411L381.804 825.013C384.123 819.532 383.279 813.207 379.696 808.569C378.009 806.672 376.533 804.142 375.69 801.612C375.128 799.785 374.706 797.958 374.425 796.131C373.371 786.222 368.101 777.368 359.668 771.676C334.791 754.811 306.753 743.427 277.027 738.367C271.335 737.313 265.432 739.632 261.848 744.27C261.848 744.41 261.778 744.551 261.638 744.691C257.843 749.329 256.789 755.232 259.108 760.714C262.059 767.671 266.276 777.368 270.07 786.223C274.708 796.974 283.563 804.985 294.525 808.991C295.087 809.131 295.65 809.342 296.212 809.623C305.277 813.207 311.601 821.429 311.812 831.127C311.812 837.24 310.126 842.3 307.385 846.516C302.958 853.263 302.536 862.117 305.699 869.495ZM300.217 945.601C304.012 945.601 307.385 943.282 309.072 939.909C310.337 937.66 311.882 935.622 313.71 933.795C316.45 931.054 317.083 926.627 315.607 923.043L289.466 862.328C288.411 859.587 286.092 857.901 283.141 857.479L282.93 857.268C279.136 856.846 275.552 858.955 274.076 862.538L251.518 918.827C249.621 923.676 251.097 928.946 255.102 932.319C257.421 934.216 259.319 936.536 260.794 939.276C263.113 943.071 266.908 945.601 271.335 945.601L300.217 945.601ZM413.637 945.601C424.811 945.601 435.562 941.384 443.573 933.584C443.573 933.584 443.644 933.584 443.784 933.584C450.109 927.47 453.271 918.616 451.584 909.972C445.26 877.507 431.767 847.149 411.74 820.797C409.842 818.267 406.469 817.002 403.096 817.634C402.956 817.634 402.745 817.634 402.464 817.634C399.512 818.056 396.772 820.164 395.718 822.905C387.496 841.668 359.035 908.286 350.813 927.892C349.338 931.054 349.97 934.638 351.868 937.379C352.57 938.363 353.133 939.417 353.554 940.541C355.241 943.703 358.614 945.601 362.198 945.601L413.637 945.601ZM361.987 957.406C358.403 957.406 355.03 959.304 353.554 962.466C352.992 963.59 352.359 964.645 351.657 965.628C349.759 968.369 349.127 971.953 350.603 975.115C358.825 994.721 387.285 1061.34 395.507 1080.1C396.772 1082.84 399.302 1084.95 402.464 1085.37C402.604 1085.37 402.745 1085.37 402.885 1085.37C406.259 1086.01 409.632 1084.74 411.529 1082.21C431.557 1055.86 445.049 1025.5 451.374 993.035C453.06 984.391 450.109 975.537 443.573 969.423C443.573 969.423 443.503 969.423 443.362 969.423C435.351 961.623 424.6 957.406 413.637 957.406L361.987 957.406ZM282.719 1045.74L282.93 1045.53C285.882 1045.11 288.201 1043.42 289.255 1040.68L315.396 979.964C316.872 976.38 316.239 971.953 313.499 969.212C311.672 967.385 310.126 965.347 308.861 963.099C307.174 959.725 303.801 957.406 300.006 957.406L271.124 957.406C266.697 957.406 262.692 959.936 260.584 963.731C259.108 966.472 257.21 968.791 254.891 970.688C250.886 974.061 249.41 979.331 251.308 984.18L273.865 1040.47C275.13 1044.05 278.925 1046.16 282.719 1045.74ZM276.816 1164.64C306.331 1159.58 334.581 1148.2 359.457 1131.33C367.89 1125.64 373.16 1116.78 374.214 1106.88C374.355 1105.05 374.776 1103.22 375.479 1101.39C376.322 1098.87 377.798 1096.34 379.485 1094.44C383.069 1089.8 383.912 1083.48 381.593 1077.99L339.851 980.596C338.797 978.067 336.267 976.591 333.526 976.591L333.316 976.802C330.997 976.802 329.099 978.277 328.045 980.386L305.488 1033.51C302.115 1040.89 302.747 1049.74 307.174 1056.49C309.915 1060.71 311.601 1065.77 311.391 1071.88C311.391 1081.58 304.855 1089.8 296.001 1093.38C295.439 1093.66 294.877 1093.88 294.314 1094.02C283.352 1098.02 274.287 1106.03 269.86 1116.78C266.065 1125.64 261.848 1135.34 258.897 1142.29C256.578 1147.77 257.632 1153.68 261.216 1158.32C261.357 1158.46 261.497 1158.6 261.638 1158.74C265.222 1163.38 271.124 1165.69 276.816 1164.64Z"/>
</mask>
<path fill-rule="evenodd" clip-rule="evenodd" d="M236.761 1198.37C225.799 1196.05 217.577 1186.35 217.155 1175.18C216.733 1164.01 223.48 1154.52 232.966 1150.73C240.556 1147.77 246.459 1141.45 249.621 1133.86L263.746 1101.39C266.697 1094.44 266.276 1086.64 263.535 1079.68C262.27 1076.52 261.427 1072.93 261.638 1069.35C261.848 1063.87 263.957 1059.02 266.908 1055.02L238.659 984.391C236.972 979.964 233.388 976.38 228.961 974.272C224.745 972.585 221.161 969.634 218.631 965.839C215.047 960.78 209.355 957.406 203.241 957.406L164.451 957.406C158.337 957.406 152.856 960.569 149.483 965.628C145.055 971.742 137.677 975.958 129.455 975.958C115.963 975.958 105 964.996 105 951.504C105 938.011 115.963 927.049 129.455 927.049C137.677 927.049 145.055 931.265 149.483 937.379C152.856 942.438 158.337 945.601 164.451 945.601L203.241 945.601C209.355 945.601 215.047 942.228 218.631 937.168C221.161 933.373 224.745 930.422 228.961 928.735C233.388 926.627 236.972 923.043 238.659 918.616L266.908 847.992C263.957 843.987 261.848 839.138 261.638 833.656C261.427 830.073 262.27 826.489 263.535 823.326C266.276 816.369 266.697 808.569 263.746 801.612L249.621 769.146C246.459 761.557 240.556 755.232 232.966 752.281C223.48 748.486 216.733 738.999 217.155 727.826C217.577 716.653 225.799 706.955 236.761 704.636C246.88 702.317 256.789 706.533 262.27 714.123C267.119 720.658 273.865 725.507 281.876 726.983C312.234 732.675 341.116 744.691 366.625 761.978C375.268 767.671 385.388 769.568 395.718 768.092C398.669 767.671 401.761 767.811 404.994 768.514C415.324 771.044 423.335 780.109 424.178 790.86C424.319 793.531 424.108 796.061 423.546 798.45C421.648 806.883 422.913 815.526 427.762 822.483C446.525 849.889 458.963 880.669 464.444 913.346C465.498 920.303 469.293 926.627 475.196 930.422C482.153 935.06 486.58 942.649 486.58 951.504C486.58 960.358 482.153 967.947 475.196 972.585C469.293 976.38 465.498 982.705 464.444 989.662C458.963 1022.34 446.525 1053.12 427.762 1080.52C422.913 1087.48 421.648 1096.12 423.546 1104.56C424.108 1106.95 424.319 1109.48 424.178 1112.15C423.335 1122.9 415.324 1131.96 404.994 1134.49C401.761 1135.2 398.669 1135.34 395.718 1134.91C385.388 1133.44 375.268 1135.34 366.625 1141.03C341.116 1158.32 312.234 1170.33 281.876 1176.02C273.865 1177.5 267.119 1182.35 262.27 1188.88C256.789 1196.47 246.88 1200.69 236.761 1198.37ZM305.699 869.495L328.256 922.622C329.31 924.73 331.207 926.205 333.526 926.205L333.737 926.416C336.478 926.416 339.008 924.941 340.062 922.411L381.804 825.013C384.123 819.532 383.279 813.207 379.696 808.569C378.009 806.672 376.533 804.142 375.69 801.612C375.128 799.785 374.706 797.958 374.425 796.131C373.371 786.222 368.101 777.368 359.668 771.676C334.791 754.811 306.753 743.427 277.027 738.367C271.335 737.313 265.432 739.632 261.848 744.27C261.848 744.41 261.778 744.551 261.638 744.691C257.843 749.329 256.789 755.232 259.108 760.714C262.059 767.671 266.276 777.368 270.07 786.223C274.708 796.974 283.563 804.985 294.525 808.991C295.087 809.131 295.65 809.342 296.212 809.623C305.277 813.207 311.601 821.429 311.812 831.127C311.812 837.24 310.126 842.3 307.385 846.516C302.958 853.263 302.536 862.117 305.699 869.495ZM300.217 945.601C304.012 945.601 307.385 943.282 309.072 939.909C310.337 937.66 311.882 935.622 313.71 933.795C316.45 931.054 317.083 926.627 315.607 923.043L289.466 862.328C288.411 859.587 286.092 857.901 283.141 857.479L282.93 857.268C279.136 856.846 275.552 858.955 274.076 862.538L251.518 918.827C249.621 923.676 251.097 928.946 255.102 932.319C257.421 934.216 259.319 936.536 260.794 939.276C263.113 943.071 266.908 945.601 271.335 945.601L300.217 945.601ZM413.637 945.601C424.811 945.601 435.562 941.384 443.573 933.584C443.573 933.584 443.644 933.584 443.784 933.584C450.109 927.47 453.271 918.616 451.584 909.972C445.26 877.507 431.767 847.149 411.74 820.797C409.842 818.267 406.469 817.002 403.096 817.634C402.956 817.634 402.745 817.634 402.464 817.634C399.512 818.056 396.772 820.164 395.718 822.905C387.496 841.668 359.035 908.286 350.813 927.892C349.338 931.054 349.97 934.638 351.868 937.379C352.57 938.363 353.133 939.417 353.554 940.541C355.241 943.703 358.614 945.601 362.198 945.601L413.637 945.601ZM361.987 957.406C358.403 957.406 355.03 959.304 353.554 962.466C352.992 963.59 352.359 964.645 351.657 965.628C349.759 968.369 349.127 971.953 350.603 975.115C358.825 994.721 387.285 1061.34 395.507 1080.1C396.772 1082.84 399.302 1084.95 402.464 1085.37C402.604 1085.37 402.745 1085.37 402.885 1085.37C406.259 1086.01 409.632 1084.74 411.529 1082.21C431.557 1055.86 445.049 1025.5 451.374 993.035C453.06 984.391 450.109 975.537 443.573 969.423C443.573 969.423 443.503 969.423 443.362 969.423C435.351 961.623 424.6 957.406 413.637 957.406L361.987 957.406ZM282.719 1045.74L282.93 1045.53C285.882 1045.11 288.201 1043.42 289.255 1040.68L315.396 979.964C316.872 976.38 316.239 971.953 313.499 969.212C311.672 967.385 310.126 965.347 308.861 963.099C307.174 959.725 303.801 957.406 300.006 957.406L271.124 957.406C266.697 957.406 262.692 959.936 260.584 963.731C259.108 966.472 257.21 968.791 254.891 970.688C250.886 974.061 249.41 979.331 251.308 984.18L273.865 1040.47C275.13 1044.05 278.925 1046.16 282.719 1045.74ZM276.816 1164.64C306.331 1159.58 334.581 1148.2 359.457 1131.33C367.89 1125.64 373.16 1116.78 374.214 1106.88C374.355 1105.05 374.776 1103.22 375.479 1101.39C376.322 1098.87 377.798 1096.34 379.485 1094.44C383.069 1089.8 383.912 1083.48 381.593 1077.99L339.851 980.596C338.797 978.067 336.267 976.591 333.526 976.591L333.316 976.802C330.997 976.802 329.099 978.277 328.045 980.386L305.488 1033.51C302.115 1040.89 302.747 1049.74 307.174 1056.49C309.915 1060.71 311.601 1065.77 311.391 1071.88C311.391 1081.58 304.855 1089.8 296.001 1093.38C295.439 1093.66 294.877 1093.88 294.314 1094.02C283.352 1098.02 274.287 1106.03 269.86 1116.78C266.065 1125.64 261.848 1135.34 258.897 1142.29C256.578 1147.77 257.632 1153.68 261.216 1158.32C261.357 1158.46 261.497 1158.6 261.638 1158.74C265.222 1163.38 271.124 1165.69 276.816 1164.64Z" stroke="#454EEC" stroke-opacity="0.3" stroke-width="2" mask="url(#path-5-inside-1_4916_14856)"/>
<mask id="path-6-inside-2_4916_14856" fill="white">
<path fill-rule="evenodd" clip-rule="evenodd" d="M1898.82 704.636C1909.78 706.955 1918 716.653 1918.42 727.826C1918.85 738.999 1912.1 748.486 1902.61 752.281C1895.02 755.232 1889.12 761.557 1885.96 769.146L1871.83 801.612C1868.88 808.569 1869.3 816.369 1872.05 823.326C1873.31 826.489 1874.15 830.073 1873.94 833.656C1873.73 839.138 1871.62 843.986 1868.67 847.992L1896.92 918.616C1898.61 923.043 1902.19 926.627 1906.62 928.735C1910.84 930.422 1914.42 933.373 1916.95 937.168C1920.53 942.228 1926.23 945.601 1932.34 945.601L1971.13 945.601C1977.24 945.601 1982.72 942.438 1986.1 937.379C1990.52 931.265 1997.9 927.049 2006.13 927.049C2019.62 927.049 2030.58 938.011 2030.58 951.504C2030.58 964.996 2019.62 975.958 2006.13 975.958C1997.9 975.958 1990.52 971.742 1986.1 965.628C1982.72 960.569 1977.24 957.406 1971.13 957.406L1932.34 957.406C1926.23 957.406 1920.53 960.779 1916.95 965.839C1914.42 969.634 1910.84 972.585 1906.62 974.272C1902.19 976.38 1898.61 979.964 1896.92 984.391L1868.67 1055.02C1871.62 1059.02 1873.73 1063.87 1873.94 1069.35C1874.15 1072.93 1873.31 1076.52 1872.05 1079.68C1869.3 1086.64 1868.88 1094.44 1871.83 1101.39L1885.96 1133.86C1889.12 1141.45 1895.02 1147.77 1902.61 1150.73C1912.1 1154.52 1918.85 1164.01 1918.42 1175.18C1918 1186.35 1909.78 1196.05 1898.82 1198.37C1888.7 1200.69 1878.79 1196.47 1873.31 1188.88C1868.46 1182.35 1861.71 1177.5 1853.7 1176.02C1823.35 1170.33 1794.46 1158.32 1768.96 1141.03C1760.31 1135.34 1750.19 1133.44 1739.86 1134.91C1736.91 1135.34 1733.82 1135.2 1730.59 1134.49C1720.26 1131.96 1712.25 1122.9 1711.4 1112.15C1711.26 1109.48 1711.47 1106.95 1712.03 1104.56C1713.93 1096.12 1712.67 1087.48 1707.82 1080.52C1689.06 1053.12 1676.62 1022.34 1671.14 989.662C1670.08 982.705 1666.29 976.38 1660.38 972.585C1653.43 967.947 1649 960.358 1649 951.504C1649 942.649 1653.43 935.06 1660.38 930.422C1666.29 926.627 1670.08 920.302 1671.14 913.346C1676.62 880.669 1689.06 849.889 1707.82 822.483C1712.67 815.526 1713.93 806.883 1712.03 798.45C1711.47 796.061 1711.26 793.531 1711.4 790.86C1712.25 780.109 1720.26 771.044 1730.59 768.514C1733.82 767.811 1736.91 767.671 1739.86 768.092C1750.19 769.568 1760.31 767.671 1768.96 761.978C1794.46 744.691 1823.35 732.675 1853.7 726.983C1861.71 725.507 1868.46 720.658 1873.31 714.123C1878.79 706.533 1888.7 702.317 1898.82 704.636ZM1829.88 1033.51L1807.32 980.386C1806.27 978.277 1804.37 976.802 1802.05 976.802L1801.84 976.591C1799.1 976.591 1796.57 978.067 1795.52 980.596L1753.78 1077.99C1751.46 1083.48 1752.3 1089.8 1755.88 1094.44C1757.57 1096.34 1759.05 1098.87 1759.89 1101.39C1760.45 1103.22 1760.87 1105.05 1761.15 1106.88C1762.21 1116.78 1767.48 1125.64 1775.91 1131.33C1800.79 1148.2 1828.83 1159.58 1858.55 1164.64C1864.24 1165.69 1870.15 1163.38 1873.73 1158.74C1873.73 1158.6 1873.8 1158.46 1873.94 1158.32C1877.74 1153.68 1878.79 1147.77 1876.47 1142.29C1873.52 1135.34 1869.3 1125.64 1865.51 1116.78C1860.87 1106.03 1852.02 1098.02 1841.05 1094.02C1840.49 1093.88 1839.93 1093.66 1839.37 1093.38C1830.3 1089.8 1823.98 1081.58 1823.77 1071.88C1823.77 1065.77 1825.45 1060.71 1828.2 1056.49C1832.62 1049.74 1833.04 1040.89 1829.88 1033.51ZM1835.36 957.406C1831.57 957.406 1828.19 959.725 1826.51 963.098C1825.24 965.347 1823.7 967.385 1821.87 969.212C1819.13 971.953 1818.5 976.38 1819.97 979.964L1846.11 1040.68C1847.17 1043.42 1849.49 1045.11 1852.44 1045.53L1852.65 1045.74C1856.44 1046.16 1860.03 1044.05 1861.5 1040.47L1884.06 984.18C1885.96 979.331 1884.48 974.061 1880.48 970.688C1878.16 968.791 1876.26 966.472 1874.79 963.731C1872.47 959.936 1868.67 957.406 1864.24 957.406L1835.36 957.406ZM1721.94 957.406C1710.77 957.406 1700.02 961.623 1692.01 969.423C1692.01 969.423 1691.94 969.423 1691.8 969.423C1685.47 975.537 1682.31 984.391 1684 993.035C1690.32 1025.5 1703.81 1055.86 1723.84 1082.21C1725.74 1084.74 1729.11 1086.01 1732.48 1085.37C1732.62 1085.37 1732.84 1085.37 1733.12 1085.37C1736.07 1084.95 1738.81 1082.84 1739.86 1080.1C1748.08 1061.34 1776.54 994.721 1784.77 975.115C1786.24 971.953 1785.61 968.369 1783.71 965.628C1783.01 964.645 1782.45 963.59 1782.03 962.466C1780.34 959.304 1776.97 957.406 1773.38 957.406L1721.94 957.406ZM1773.59 945.601C1777.18 945.601 1780.55 943.703 1782.03 940.541C1782.59 939.417 1783.22 938.363 1783.92 937.379C1785.82 934.638 1786.45 931.054 1784.98 927.892C1776.76 908.286 1748.3 841.668 1740.07 822.905C1738.81 820.164 1736.28 818.056 1733.12 817.634C1732.98 817.634 1732.84 817.634 1732.69 817.634C1729.32 817.002 1725.95 818.267 1724.05 820.797C1704.02 847.149 1690.53 877.506 1684.21 909.972C1682.52 918.616 1685.47 927.47 1692.01 933.584C1692.01 933.584 1692.08 933.584 1692.22 933.584C1700.23 941.384 1710.98 945.601 1721.94 945.601L1773.59 945.601ZM1852.86 857.268L1852.65 857.479C1849.7 857.9 1847.38 859.587 1846.33 862.328L1820.18 923.043C1818.71 926.627 1819.34 931.054 1822.08 933.795C1823.91 935.622 1825.45 937.66 1826.72 939.909C1828.41 943.282 1831.78 945.601 1835.57 945.601L1864.46 945.601C1868.88 945.601 1872.89 943.071 1875 939.276C1876.47 936.535 1878.37 934.216 1880.69 932.319C1884.69 928.946 1886.17 923.676 1884.27 918.827L1861.72 862.538C1860.45 858.955 1856.66 856.846 1852.86 857.268ZM1858.76 738.367C1829.25 743.426 1801 754.811 1776.12 771.676C1767.69 777.368 1762.42 786.222 1761.37 796.131C1761.23 797.958 1760.8 799.785 1760.1 801.612C1759.26 804.142 1757.78 806.672 1756.1 808.569C1752.51 813.207 1751.67 819.532 1753.99 825.013L1795.73 922.411C1796.78 924.941 1799.31 926.416 1802.05 926.416L1802.26 926.205C1804.58 926.205 1806.48 924.73 1807.53 922.621L1830.09 869.495C1833.47 862.117 1832.83 853.263 1828.41 846.516C1825.67 842.3 1823.98 837.24 1824.19 831.127C1824.19 821.429 1830.72 813.207 1839.58 809.623C1840.14 809.342 1840.7 809.131 1841.27 808.991C1852.23 804.985 1861.29 796.974 1865.72 786.222C1869.52 777.368 1873.73 767.671 1876.68 760.714C1879 755.232 1877.95 749.329 1874.36 744.691C1874.22 744.551 1874.08 744.41 1873.94 744.27C1870.36 739.632 1864.46 737.313 1858.76 738.367Z"/>
</mask>
<path fill-rule="evenodd" clip-rule="evenodd" d="M1898.82 704.636C1909.78 706.955 1918 716.653 1918.42 727.826C1918.85 738.999 1912.1 748.486 1902.61 752.281C1895.02 755.232 1889.12 761.557 1885.96 769.146L1871.83 801.612C1868.88 808.569 1869.3 816.369 1872.05 823.326C1873.31 826.489 1874.15 830.073 1873.94 833.656C1873.73 839.138 1871.62 843.986 1868.67 847.992L1896.92 918.616C1898.61 923.043 1902.19 926.627 1906.62 928.735C1910.84 930.422 1914.42 933.373 1916.95 937.168C1920.53 942.228 1926.23 945.601 1932.34 945.601L1971.13 945.601C1977.24 945.601 1982.72 942.438 1986.1 937.379C1990.52 931.265 1997.9 927.049 2006.13 927.049C2019.62 927.049 2030.58 938.011 2030.58 951.504C2030.58 964.996 2019.62 975.958 2006.13 975.958C1997.9 975.958 1990.52 971.742 1986.1 965.628C1982.72 960.569 1977.24 957.406 1971.13 957.406L1932.34 957.406C1926.23 957.406 1920.53 960.779 1916.95 965.839C1914.42 969.634 1910.84 972.585 1906.62 974.272C1902.19 976.38 1898.61 979.964 1896.92 984.391L1868.67 1055.02C1871.62 1059.02 1873.73 1063.87 1873.94 1069.35C1874.15 1072.93 1873.31 1076.52 1872.05 1079.68C1869.3 1086.64 1868.88 1094.44 1871.83 1101.39L1885.96 1133.86C1889.12 1141.45 1895.02 1147.77 1902.61 1150.73C1912.1 1154.52 1918.85 1164.01 1918.42 1175.18C1918 1186.35 1909.78 1196.05 1898.82 1198.37C1888.7 1200.69 1878.79 1196.47 1873.31 1188.88C1868.46 1182.35 1861.71 1177.5 1853.7 1176.02C1823.35 1170.33 1794.46 1158.32 1768.96 1141.03C1760.31 1135.34 1750.19 1133.44 1739.86 1134.91C1736.91 1135.34 1733.82 1135.2 1730.59 1134.49C1720.26 1131.96 1712.25 1122.9 1711.4 1112.15C1711.26 1109.48 1711.47 1106.95 1712.03 1104.56C1713.93 1096.12 1712.67 1087.48 1707.82 1080.52C1689.06 1053.12 1676.62 1022.34 1671.14 989.662C1670.08 982.705 1666.29 976.38 1660.38 972.585C1653.43 967.947 1649 960.358 1649 951.504C1649 942.649 1653.43 935.06 1660.38 930.422C1666.29 926.627 1670.08 920.302 1671.14 913.346C1676.62 880.669 1689.06 849.889 1707.82 822.483C1712.67 815.526 1713.93 806.883 1712.03 798.45C1711.47 796.061 1711.26 793.531 1711.4 790.86C1712.25 780.109 1720.26 771.044 1730.59 768.514C1733.82 767.811 1736.91 767.671 1739.86 768.092C1750.19 769.568 1760.31 767.671 1768.96 761.978C1794.46 744.691 1823.35 732.675 1853.7 726.983C1861.71 725.507 1868.46 720.658 1873.31 714.123C1878.79 706.533 1888.7 702.317 1898.82 704.636ZM1829.88 1033.51L1807.32 980.386C1806.27 978.277 1804.37 976.802 1802.05 976.802L1801.84 976.591C1799.1 976.591 1796.57 978.067 1795.52 980.596L1753.78 1077.99C1751.46 1083.48 1752.3 1089.8 1755.88 1094.44C1757.57 1096.34 1759.05 1098.87 1759.89 1101.39C1760.45 1103.22 1760.87 1105.05 1761.15 1106.88C1762.21 1116.78 1767.48 1125.64 1775.91 1131.33C1800.79 1148.2 1828.83 1159.58 1858.55 1164.64C1864.24 1165.69 1870.15 1163.38 1873.73 1158.74C1873.73 1158.6 1873.8 1158.46 1873.94 1158.32C1877.74 1153.68 1878.79 1147.77 1876.47 1142.29C1873.52 1135.34 1869.3 1125.64 1865.51 1116.78C1860.87 1106.03 1852.02 1098.02 1841.05 1094.02C1840.49 1093.88 1839.93 1093.66 1839.37 1093.38C1830.3 1089.8 1823.98 1081.58 1823.77 1071.88C1823.77 1065.77 1825.45 1060.71 1828.2 1056.49C1832.62 1049.74 1833.04 1040.89 1829.88 1033.51ZM1835.36 957.406C1831.57 957.406 1828.19 959.725 1826.51 963.098C1825.24 965.347 1823.7 967.385 1821.87 969.212C1819.13 971.953 1818.5 976.38 1819.97 979.964L1846.11 1040.68C1847.17 1043.42 1849.49 1045.11 1852.44 1045.53L1852.65 1045.74C1856.44 1046.16 1860.03 1044.05 1861.5 1040.47L1884.06 984.18C1885.96 979.331 1884.48 974.061 1880.48 970.688C1878.16 968.791 1876.26 966.472 1874.79 963.731C1872.47 959.936 1868.67 957.406 1864.24 957.406L1835.36 957.406ZM1721.94 957.406C1710.77 957.406 1700.02 961.623 1692.01 969.423C1692.01 969.423 1691.94 969.423 1691.8 969.423C1685.47 975.537 1682.31 984.391 1684 993.035C1690.32 1025.5 1703.81 1055.86 1723.84 1082.21C1725.74 1084.74 1729.11 1086.01 1732.48 1085.37C1732.62 1085.37 1732.84 1085.37 1733.12 1085.37C1736.07 1084.95 1738.81 1082.84 1739.86 1080.1C1748.08 1061.34 1776.54 994.721 1784.77 975.115C1786.24 971.953 1785.61 968.369 1783.71 965.628C1783.01 964.645 1782.45 963.59 1782.03 962.466C1780.34 959.304 1776.97 957.406 1773.38 957.406L1721.94 957.406ZM1773.59 945.601C1777.18 945.601 1780.55 943.703 1782.03 940.541C1782.59 939.417 1783.22 938.363 1783.92 937.379C1785.82 934.638 1786.45 931.054 1784.98 927.892C1776.76 908.286 1748.3 841.668 1740.07 822.905C1738.81 820.164 1736.28 818.056 1733.12 817.634C1732.98 817.634 1732.84 817.634 1732.69 817.634C1729.32 817.002 1725.95 818.267 1724.05 820.797C1704.02 847.149 1690.53 877.506 1684.21 909.972C1682.52 918.616 1685.47 927.47 1692.01 933.584C1692.01 933.584 1692.08 933.584 1692.22 933.584C1700.23 941.384 1710.98 945.601 1721.94 945.601L1773.59 945.601ZM1852.86 857.268L1852.65 857.479C1849.7 857.9 1847.38 859.587 1846.33 862.328L1820.18 923.043C1818.71 926.627 1819.34 931.054 1822.08 933.795C1823.91 935.622 1825.45 937.66 1826.72 939.909C1828.41 943.282 1831.78 945.601 1835.57 945.601L1864.46 945.601C1868.88 945.601 1872.89 943.071 1875 939.276C1876.47 936.535 1878.37 934.216 1880.69 932.319C1884.69 928.946 1886.17 923.676 1884.27 918.827L1861.72 862.538C1860.45 858.955 1856.66 856.846 1852.86 857.268ZM1858.76 738.367C1829.25 743.426 1801 754.811 1776.12 771.676C1767.69 777.368 1762.42 786.222 1761.37 796.131C1761.23 797.958 1760.8 799.785 1760.1 801.612C1759.26 804.142 1757.78 806.672 1756.1 808.569C1752.51 813.207 1751.67 819.532 1753.99 825.013L1795.73 922.411C1796.78 924.941 1799.31 926.416 1802.05 926.416L1802.26 926.205C1804.58 926.205 1806.48 924.73 1807.53 922.621L1830.09 869.495C1833.47 862.117 1832.83 853.263 1828.41 846.516C1825.67 842.3 1823.98 837.24 1824.19 831.127C1824.19 821.429 1830.72 813.207 1839.58 809.623C1840.14 809.342 1840.7 809.131 1841.27 808.991C1852.23 804.985 1861.29 796.974 1865.72 786.222C1869.52 777.368 1873.73 767.671 1876.68 760.714C1879 755.232 1877.95 749.329 1874.36 744.691C1874.22 744.551 1874.08 744.41 1873.94 744.27C1870.36 739.632 1864.46 737.313 1858.76 738.367Z" stroke="#454EEC" stroke-opacity="0.3" stroke-width="2" mask="url(#path-6-inside-2_4916_14856)"/>
</g>
<defs>
<radialGradient id="paint0_radial_4916_14856" cx="0" cy="0" r="1" gradientUnits="userSpaceOnUse" gradientTransform="translate(1066 592) rotate(90) scale(497)">
<stop stop-color="#EAF0F6"/>
<stop offset="1" stop-color="#EAF0F6" stop-opacity="0"/>
</radialGradient>
<radialGradient id="paint1_radial_4916_14856" cx="0" cy="0" r="1" gradientUnits="userSpaceOnUse" gradientTransform="translate(1066 603) rotate(90) scale(603)">
<stop stop-color="#EAF0F6"/>
<stop offset="1" stop-color="#EAF0F6" stop-opacity="0"/>
</radialGradient>
<linearGradient id="paint2_linear_4916_14856" x1="1808.15" y1="577.5" x2="1656.65" y2="1212" gradientUnits="userSpaceOnUse">
<stop offset="0.426175" stop-color="#F6F6F6"/>
<stop offset="0.838542" stop-color="#EDEFFF" stop-opacity="0"/>
</linearGradient>
<linearGradient id="paint3_linear_4916_14856" x1="324.499" y1="577.5" x2="475.999" y2="1212" gradientUnits="userSpaceOnUse">
<stop offset="0.426175" stop-color="#F6F6F6"/>
<stop offset="0.838542" stop-color="#EDEFFF" stop-opacity="0"/>
</linearGradient>
<clipPath id="clip0_4916_14856">
<rect width="2133" height="1207" fill="white"/>
</clipPath>
</defs>
</svg>
