<svg width="46" height="46" viewBox="0 0 46 46" fill="none" xmlns="http://www.w3.org/2000/svg">
<rect width="46" height="46" fill="#0054A6" />
<line x1="43.5198" y1="18.1394" x2="34.5198" y2="-12.8606" stroke="#3378B5"/>
<line x1="33.4709" y1="-12.8318" x2="28.4709" y2="1.16817" stroke="#3378B5"/>
<line x1="7.5301" y1="9.82913" x2="11.5301" y2="-1.17087" stroke="#3378B5"/>
<line x1="44.6464" y1="18.6464" x2="51.6464" y2="11.6464" stroke="#3378B5"/>
<line x1="5.35355" y1="12.3536" x2="-0.646446" y2="18.3536" stroke="#3378B5"/>
<line x1="-11" y1="31.5" x2="1" y2="31.5" stroke="#3378B5"/>
<line x1="1.33081" y1="33.3749" x2="-15.6692" y2="48.3749" stroke="#3378B5"/>
<circle cx="22.5" cy="31.5" r="1.9" stroke="#3378B5" stroke-width="1.2"/>
<circle cx="2.5" cy="31.5" r="1.9" stroke="#3378B5" stroke-width="1.2"/>
<circle cx="17.5" cy="18.5" r="1.9" stroke="#3378B5" stroke-width="1.2"/>
<circle cx="28.5" cy="2.5" r="1.9" stroke="#3378B5" stroke-width="1.2"/>
<circle cx="7.5" cy="11.5" r="1.9" stroke="#3378B5" stroke-width="1.2"/>
<circle cx="33.5" cy="31.5" r="1.9" stroke="#3378B5" stroke-width="1.2"/>
<circle cx="43.5" cy="19.5" r="1.9" stroke="#3378B5" stroke-width="1.2"/>
<circle cx="12.5" cy="43.5" r="1.9" stroke="#3378B5" stroke-width="1.2"/>
<line x1="9.80963" y1="10.5377" x2="26.8096" y2="3.53766" stroke="#3378B5"/>
<line x1="15.7519" y1="17.4341" x2="8.75193" y2="13.4341" stroke="#3378B5"/>
<line x1="18.6159" y1="16.6799" x2="28.6159" y2="4.67991" stroke="#3378B5"/>
<line x1="22.5358" y1="29.4857" x2="18.5358" y2="19.4857" stroke="#3378B5"/>
<line x1="33.5058" y1="30.076" x2="29.5058" y2="4.07603" stroke="#3378B5"/>
<line x1="42.2428" y1="20.4371" x2="24.2428" y2="30.4371" stroke="#3378B5"/>
<line x1="13.6263" y1="41.6678" x2="21.6263" y2="32.6678" stroke="#3378B5"/>
<line x1="4" y1="31.5" x2="21" y2="31.5" stroke="#3378B5"/>
<line x1="32.2428" y1="32.4371" x2="14.2428" y2="42.4371" stroke="#3378B5"/>
<line x1="2.69514" y1="29.6037" x2="15.6951" y2="19.6037" stroke="#3378B5"/>
<line x1="42.1272" y1="20.4835" x2="4.12725" y2="30.4835" stroke="#3378B5"/>
<line x1="41.6096" y1="18.3123" x2="29.6096" y2="3.31235" stroke="#3378B5"/>
<line x1="7.48507" y1="13.1213" x2="3.48507" y2="29.1213" stroke="#3378B5"/>
<line x1="1.33081" y1="-12.6251" x2="-15.6692" y2="2.37492" stroke="#3378B5"/>
<line x1="-1.35355" y1="18.6464" x2="5.64645" y2="11.6464" stroke="#3378B5"/>
<line x1="51.3536" y1="12.3536" x2="45.3536" y2="18.3536" stroke="#3378B5"/>
<line x1="35" y1="31.5" x2="47" y2="31.5" stroke="#3378B5"/>
<line x1="47.3308" y1="33.3749" x2="30.3308" y2="48.3749" stroke="#3378B5"/>
<line x1="47.3308" y1="-12.6251" x2="30.3308" y2="2.37492" stroke="#3378B5"/>
<line x1="43.5198" y1="64.1394" x2="34.5198" y2="33.1394" stroke="#3378B5"/>
<line x1="33.4709" y1="33.1682" x2="28.4709" y2="47.1682" stroke="#3378B5"/>
<line x1="7.5301" y1="55.8291" x2="11.5301" y2="44.8291" stroke="#3378B5"/>
</svg>
